<svg width="130" height="45" viewBox="0 0 95 32" fill="none" xmlns="http://www.w3.org/2000/svg">
<path d="M6.06167 31.9983C5.81775 31.9983 5.57973 31.9951 5.33773 31.9894C4.83641 31.9825 4.33626 31.9369 3.84138 31.8529C3.37993 31.7699 2.93291 31.6154 2.51507 31.3946C2.10105 31.1756 1.72344 30.8884 1.39669 30.5441C1.06521 30.2039 0.789241 29.8093 0.579715 29.3759C0.367879 28.9397 0.221276 28.4722 0.145013 27.9895C0.062655 27.471 0.0180961 26.9466 0.0117202 26.421C0.00664464 26.2446 0 25.6571 0 25.6571V6.33219C0 6.33219 0.00707695 5.75378 0.0117602 5.58385C0.0178651 5.05907 0.0621649 4.53552 0.144276 4.01776C0.22068 3.53383 0.367397 3.06494 0.579346 2.62732C0.788103 2.19424 1.06254 1.79932 1.39202 1.45785C1.72113 1.11314 2.09996 0.824515 2.51467 0.602497C2.93156 0.382385 3.37773 0.228993 3.83825 0.14746C4.33475 0.0626047 4.83664 0.0167279 5.3397 0.0102144L6.06206 0H88.334L89.065 0.0106243C89.5635 0.0168142 90.0608 0.0622817 90.5528 0.14664C91.0179 0.229196 91.4688 0.383658 91.8904 0.604948C92.7213 1.05238 93.3973 1.76025 93.8238 2.62936C94.0323 3.06396 94.1768 3.52902 94.2522 4.00878C94.3353 4.53079 94.3818 5.05844 94.3914 5.58754C94.3937 5.82445 94.3937 6.07893 94.3937 6.33219C94.4 6.6459 94.4 6.94449 94.4 7.24553V24.7536C94.4 25.0575 94.4 25.3541 94.3937 25.653C94.3937 25.9251 94.3937 26.1743 94.3906 26.4308C94.3812 26.9504 94.3355 27.4687 94.2537 27.9813C94.179 28.4674 94.0332 28.9386 93.8214 29.3784C93.6104 29.8071 93.3361 30.1983 93.0084 30.5376C92.6814 30.8838 92.3031 31.1726 91.8881 31.393C91.4676 31.6155 91.0175 31.7706 90.5528 31.8529C90.0579 31.9374 89.5577 31.983 89.0564 31.9894C88.8219 31.9951 88.5764 31.9983 88.338 31.9983L87.4702 32L6.06167 31.9983Z" fill="black"/>
<path d="M76.3633 17.1542H77.7852V18.387H77.8197C77.9159 18.002 78.1421 17.6617 78.4603 17.4234C78.7785 17.1851 79.1692 17.0633 79.5668 17.0784C79.7386 17.0778 79.91 17.0964 80.0776 17.1339V18.5245C79.8607 18.4584 79.6344 18.4281 79.4077 18.4347C79.1912 18.4259 78.9752 18.464 78.7748 18.5463C78.5744 18.6286 78.3942 18.7532 78.2466 18.9115C78.099 19.0698 77.9875 19.2581 77.9198 19.4634C77.852 19.6688 77.8296 19.8863 77.8542 20.1011V24.3972H76.3633L76.3633 17.1542Z" fill="white"/>
<path d="M51.4434 20.7759C51.4434 23.0267 50.2353 24.4728 48.4123 24.4728C47.9504 24.4969 47.4912 24.3908 47.087 24.1667C46.6828 23.9426 46.3501 23.6095 46.127 23.2056H46.0925V26.7931H44.6016V17.154H46.0447V18.3587H46.0721C46.3055 17.9567 46.6438 17.6254 47.0511 17.3999C47.4583 17.1744 47.9192 17.0633 48.3848 17.0782C50.2283 17.0782 51.4434 18.5314 51.4434 20.7759ZM49.911 20.7759C49.911 19.3095 49.151 18.3454 47.9915 18.3454C46.8524 18.3454 46.0862 19.3298 46.0862 20.7759C46.0862 22.2353 46.8524 23.2126 47.9915 23.2126C49.151 23.2126 49.911 22.2556 49.911 20.7759H49.911Z" fill="white"/>
<path d="M43.4473 20.7759C43.4473 23.0267 42.2392 24.4728 40.4162 24.4728C39.9543 24.4969 39.4951 24.3908 39.0909 24.1667C38.6867 23.9426 38.354 23.6095 38.1309 23.2056H38.0964V26.7931H36.6055V17.154H38.0486V18.3587H38.076C38.3094 17.9567 38.6478 17.6254 39.055 17.3999C39.4623 17.1744 39.9232 17.0633 40.3887 17.0782C42.2321 17.0782 43.4473 18.5314 43.4473 20.7759ZM41.9149 20.7759C41.9149 19.3095 41.1549 18.3454 39.9954 18.3454C38.8563 18.3454 38.0901 19.3298 38.0901 20.7759C38.0901 22.2353 38.8563 23.2126 39.9954 23.2126C41.1549 23.2126 41.9149 22.2556 41.9149 20.7759Z" fill="white"/>
<path d="M68.2422 20.7761C68.2422 18.4972 69.5881 17.0652 71.687 17.0652C73.7929 17.0652 75.1326 18.4972 75.1326 20.7761C75.1326 23.0613 73.7999 24.4871 71.687 24.4871C69.5748 24.4871 68.2422 23.0613 68.2422 20.7761ZM73.6135 20.7761C73.6135 19.2128 72.895 18.2902 71.687 18.2902C70.4789 18.2902 69.7613 19.2199 69.7613 20.7761C69.7613 22.3456 70.4789 23.2613 71.687 23.2613C72.895 23.2613 73.6134 22.3456 73.6134 20.7761H73.6135Z" fill="white"/>
<path d="M86.9504 22.2699C86.7498 23.5847 85.4657 24.4871 83.8229 24.4871C81.7099 24.4871 80.3984 23.0753 80.3984 20.8105C80.3984 18.5386 81.717 17.0652 83.7602 17.0652C85.7697 17.0652 87.0334 18.4417 87.0334 20.6378V21.1472H81.9034V21.2371C81.8798 21.5036 81.9132 21.7722 82.0016 22.0248C82.09 22.2775 82.2313 22.5085 82.4161 22.7026C82.6009 22.8966 82.825 23.0492 83.0735 23.1503C83.322 23.2513 83.5892 23.2985 83.8573 23.2886C84.2097 23.3215 84.5632 23.2402 84.8654 23.0566C85.1676 22.8731 85.4024 22.5971 85.5347 22.2699L86.9504 22.2699ZM81.9105 20.1082H85.5417C85.5551 19.8685 85.5187 19.6286 85.4347 19.4037C85.3507 19.1787 85.221 18.9735 85.0537 18.8008C84.8865 18.6282 84.6852 18.492 84.4626 18.4006C84.24 18.3092 84.0009 18.2647 83.7602 18.2699C83.5174 18.2684 83.2767 18.3149 83.0521 18.4067C82.8274 18.4985 82.6232 18.6338 82.4512 18.8047C82.2793 18.9756 82.1429 19.1788 82.0501 19.4025C81.9573 19.6262 81.9099 19.8661 81.9105 20.1082V20.1082Z" fill="white"/>
<path d="M66.0618 15.4402V17.1542H67.443V18.3316H66.0618V22.3246C66.0618 22.9449 66.3384 23.2339 66.9456 23.2339C67.1095 23.2311 67.2732 23.2196 67.436 23.1995V24.3698C67.163 24.4207 66.8855 24.4437 66.6079 24.4386C65.1374 24.4386 64.5639 23.8878 64.5639 22.4831V18.3316H63.5078V17.1542H64.5639V15.4402H66.0618Z" fill="white"/>
<path d="M33.1341 21.7119H29.3367L28.4248 24.397H26.8164L30.4132 14.4626H32.0843L35.6811 24.397H34.0452L33.1341 21.7119ZM29.73 20.4728H32.7401L31.2562 16.115H31.2147L29.73 20.4728Z" fill="white"/>
<path d="M56.7254 21.6292C56.8359 22.6144 57.7956 23.2612 59.1071 23.2612C60.3637 23.2612 61.2678 22.6143 61.2678 21.726C61.2678 20.9549 60.7225 20.4932 59.4314 20.1768L58.1403 19.8667C56.311 19.426 55.4617 18.5729 55.4617 17.1885C55.4617 15.4745 56.9596 14.2971 59.0867 14.2971C61.1918 14.2971 62.6349 15.4745 62.6835 17.1885H61.1785C61.0884 16.1971 60.2665 15.5987 59.0655 15.5987C57.8645 15.5987 57.0427 16.2042 57.0427 17.0854C57.0427 17.7878 57.5676 18.201 58.8516 18.5174L59.9492 18.7862C61.9932 19.2682 62.8425 20.087 62.8425 21.5401C62.8425 23.3987 61.3579 24.5627 58.9966 24.5627C56.7873 24.5627 55.2956 23.426 55.1992 21.6291L56.7254 21.6292Z" fill="white"/>
<path d="M19.0703 16.2406C19.0789 15.5729 19.2568 14.9182 19.5873 14.3374C19.9179 13.7566 20.3904 13.2687 20.9608 12.919C20.5984 12.4028 20.1203 11.9781 19.5645 11.6784C19.0087 11.3788 18.3905 11.2125 17.759 11.1928C16.4118 11.0518 15.1058 11.9967 14.4193 11.9967C13.7195 11.9967 12.6625 11.2068 11.5244 11.2302C10.7882 11.2539 10.0707 11.4674 9.44183 11.8498C8.81297 12.2323 8.29417 12.7706 7.936 13.4125C6.38445 16.0912 7.54176 20.028 9.02801 22.1933C9.77161 23.2536 10.6407 24.438 11.7778 24.396C12.8906 24.3499 13.3062 23.6884 14.6494 23.6884C15.9801 23.6884 16.37 24.396 17.5302 24.3693C18.7243 24.3499 19.4766 23.3043 20.1941 22.2339C20.7284 21.4785 21.1395 20.6435 21.4122 19.7599C20.7185 19.4674 20.1265 18.9776 19.7101 18.3518C19.2936 17.7259 19.0711 16.9917 19.0703 16.2406Z" fill="white"/>
<path d="M16.878 9.76881C17.529 8.98945 17.8498 7.9877 17.7721 6.97632C16.7774 7.08049 15.8587 7.55454 15.1988 8.30401C14.8762 8.67014 14.6291 9.09609 14.4717 9.5575C14.3142 10.0189 14.2495 10.5068 14.2813 10.9931C14.7788 10.9982 15.271 10.8907 15.7208 10.6786C16.1706 10.4666 16.5662 10.1555 16.878 9.76881Z" fill="white"/>
<path d="M40.573 11.7583H39.8334L39.0868 9.10522H39.0304L38.2869 11.7583H37.5543L36.5586 8.15601H37.2817L37.9288 10.9048H37.9821L38.7248 8.15601H39.4088L40.1515 10.9048H40.2079L40.8519 8.15601H41.5648L40.573 11.7583Z" fill="white"/>
<path d="M62.762 9.95553C62.7393 9.71879 62.7664 9.47994 62.8417 9.25428C62.917 9.02863 63.0387 8.82115 63.1991 8.64517C63.3595 8.46918 63.555 8.32857 63.7731 8.23235C63.9912 8.13613 64.2271 8.08643 64.4656 8.08643C64.704 8.08643 64.9399 8.13613 65.158 8.23235C65.3761 8.32857 65.5716 8.46918 65.732 8.64517C65.8924 8.82115 66.0141 9.02863 66.0894 9.25428C66.1647 9.47994 66.1919 9.71879 66.1692 9.95553C66.1923 10.1925 66.1655 10.4317 66.0904 10.6577C66.0153 10.8837 65.8936 11.0916 65.7332 11.2679C65.5727 11.4442 65.3771 11.5852 65.1588 11.6816C64.9405 11.778 64.7043 11.8278 64.4656 11.8278C64.2268 11.8278 63.9907 11.778 63.7724 11.6816C63.554 11.5852 63.3584 11.4442 63.1979 11.2679C63.0375 11.0916 62.9158 10.8837 62.8407 10.6577C62.7657 10.4317 62.7388 10.1925 62.762 9.95553ZM65.4358 9.95553C65.4358 9.17467 65.0841 8.71803 64.4667 8.71803C63.847 8.71803 63.4984 9.17467 63.4984 9.95554C63.4984 10.7426 63.8471 11.1958 64.4667 11.1958C65.0841 11.1958 65.4358 10.7395 65.4358 9.95553Z" fill="white"/>
<path d="M32.637 9.95553C32.6143 9.71879 32.6414 9.47994 32.7167 9.25428C32.792 9.02863 32.9137 8.82115 33.0741 8.64517C33.2345 8.46918 33.43 8.32857 33.6481 8.23235C33.8662 8.13613 34.1021 8.08643 34.3406 8.08643C34.579 8.08643 34.8149 8.13613 35.033 8.23235C35.2511 8.32857 35.4466 8.46918 35.607 8.64517C35.7674 8.82115 35.8891 9.02863 35.9644 9.25428C36.0397 9.47994 36.0669 9.71879 36.0442 9.95553C36.0673 10.1925 36.0405 10.4317 35.9654 10.6577C35.8903 10.8837 35.7686 11.0916 35.6082 11.2679C35.4477 11.4442 35.2521 11.5852 35.0338 11.6816C34.8155 11.778 34.5793 11.8278 34.3406 11.8278C34.1018 11.8278 33.8657 11.778 33.6474 11.6816C33.429 11.5852 33.2334 11.4442 33.0729 11.2679C32.9125 11.0916 32.7908 10.8837 32.7157 10.6577C32.6407 10.4317 32.6138 10.1925 32.637 9.95553ZM35.3109 9.95553C35.3109 9.17467 34.9591 8.71803 34.3417 8.71803C33.722 8.71803 33.3734 9.17467 33.3734 9.95554C33.3734 10.7426 33.7221 11.1958 34.3417 11.1958C34.9591 11.1958 35.3109 10.7395 35.3109 9.95553H35.3109Z" fill="white"/>
<path d="M52.4688 10.7395C52.4688 10.0911 52.9529 9.71728 53.8124 9.66415L54.7909 9.60791V9.29697C54.7909 8.9165 54.5386 8.70166 54.0513 8.70166C53.6533 8.70166 53.3776 8.84736 53.2984 9.10205H52.6082C52.6811 8.4833 53.2647 8.08643 54.0842 8.08643C54.9899 8.08643 55.5007 8.53603 55.5007 9.29697V11.7583H54.8144V11.252H54.758C54.6435 11.4336 54.4827 11.5817 54.2921 11.6811C54.1014 11.7804 53.8878 11.8276 53.6729 11.8176C53.5213 11.8334 53.368 11.8172 53.223 11.7703C53.0779 11.7233 52.9444 11.6466 52.831 11.545C52.7175 11.4434 52.6267 11.3193 52.5643 11.1805C52.5019 11.0418 52.4693 10.8916 52.4688 10.7395ZM54.7909 10.4317V10.1306L53.9087 10.1868C53.4112 10.22 53.1856 10.3888 53.1856 10.7063C53.1856 11.0306 53.4676 11.2192 53.8555 11.2192C53.9691 11.2307 54.0839 11.2193 54.193 11.1856C54.3021 11.1519 54.4033 11.0967 54.4906 11.0232C54.5779 10.9497 54.6494 10.8595 54.701 10.7579C54.7526 10.6563 54.7832 10.5454 54.7909 10.4317Z" fill="white"/>
<path d="M48.3127 9.9556C48.29 9.71884 48.3172 9.47998 48.3925 9.25431C48.4678 9.02865 48.5896 8.82117 48.75 8.64518C48.9104 8.46919 49.1059 8.32857 49.3241 8.23235C49.5422 8.13613 49.778 8.08643 50.0165 8.08643C50.255 8.08643 50.4909 8.13613 50.709 8.23235C50.9271 8.32857 51.1226 8.46919 51.283 8.64518C51.4435 8.82117 51.5652 9.02865 51.6405 9.25431C51.7158 9.47998 51.743 9.71884 51.7203 9.9556C51.7434 10.1926 51.7166 10.4318 51.6415 10.6578C51.5663 10.8838 51.4447 11.0917 51.2842 11.268C51.1237 11.4443 50.9281 11.5852 50.7097 11.6816C50.4914 11.7781 50.2553 11.8279 50.0165 11.8279C49.7777 11.8279 49.5416 11.7781 49.3233 11.6816C49.105 11.5852 48.9093 11.4443 48.7488 11.268C48.5884 11.0917 48.4667 10.8838 48.3916 10.6578C48.3165 10.4318 48.2896 10.1926 48.3127 9.9556ZM50.9866 9.9556C50.9866 9.17474 50.6348 8.7181 50.0175 8.7181C49.3978 8.7181 49.0492 9.17474 49.0492 9.9556C49.0492 10.7427 49.3978 11.1958 50.0175 11.1958C50.6348 11.1958 50.9866 10.7396 50.9866 9.9556H50.9866Z" fill="white"/>
<path d="M83.2456 10.7857C83.1487 11.1149 82.9388 11.3997 82.6527 11.5902C82.3665 11.7808 82.0223 11.8649 81.6802 11.8279C81.4422 11.8342 81.2057 11.7887 80.9871 11.6947C80.7685 11.6006 80.573 11.4603 80.4142 11.2834C80.2555 11.1065 80.1372 10.8972 80.0677 10.6702C79.9981 10.4431 79.979 10.2037 80.0115 9.96852C79.9798 9.73261 79.9993 9.49266 80.0687 9.26493C80.1381 9.03719 80.2557 8.82697 80.4137 8.64852C80.5716 8.47006 80.7661 8.32752 80.9841 8.23055C81.2021 8.13359 81.4384 8.08446 81.6771 8.08649C82.6823 8.08649 83.2886 8.77129 83.2886 9.90249V10.1506H80.7377V10.1904C80.7266 10.3226 80.7432 10.4557 80.7867 10.5811C80.8301 10.7065 80.8993 10.8214 80.9899 10.9186C81.0805 11.0158 81.1904 11.093 81.3127 11.1453C81.4349 11.1976 81.5668 11.2239 81.6998 11.2224C81.8704 11.2428 82.0431 11.2122 82.1962 11.1344C82.3492 11.0567 82.4756 10.9353 82.5592 10.7857L83.2456 10.7857ZM80.7377 9.62477H82.5624C82.5714 9.50386 82.5549 9.38242 82.514 9.26825C82.4731 9.15407 82.4087 9.04969 82.325 8.9618C82.2413 8.87392 82.14 8.80448 82.0277 8.75793C81.9155 8.71139 81.7947 8.68879 81.6732 8.69157C81.5499 8.69002 81.4275 8.71311 81.3133 8.75946C81.1991 8.80582 81.0953 8.87451 81.0081 8.96148C80.9209 9.04845 80.8521 9.15194 80.8057 9.26586C80.7592 9.37977 80.7361 9.50181 80.7377 9.62477H80.7377Z" fill="white"/>
<path d="M67.125 8.15609H67.8113V8.72835H67.8646C67.955 8.52282 68.1074 8.35052 68.3006 8.23548C68.4939 8.12043 68.7183 8.06837 68.9426 8.08655C69.1184 8.07338 69.2949 8.0998 69.459 8.16388C69.6231 8.22796 69.7707 8.32804 69.8908 8.45672C70.0109 8.58539 70.1004 8.73936 70.1527 8.90722C70.205 9.07507 70.2188 9.25251 70.193 9.42639V11.7584H69.48V9.60492C69.48 9.02602 69.2278 8.73812 68.7005 8.73812C68.5812 8.73258 68.462 8.75283 68.3513 8.7975C68.2405 8.84216 68.1408 8.91018 68.0588 8.99689C67.9769 9.0836 67.9147 9.18694 67.8766 9.29985C67.8385 9.41275 67.8253 9.53254 67.8379 9.65101V11.7584H67.125V8.15609Z" fill="white"/>
<path d="M42.4023 8.15609H43.0886V8.72835H43.1419C43.2323 8.52282 43.3847 8.35052 43.578 8.23548C43.7712 8.12043 43.9956 8.06837 44.2199 8.08655C44.3957 8.07338 44.5722 8.0998 44.7363 8.16388C44.9005 8.22796 45.048 8.32804 45.1681 8.45672C45.2882 8.58539 45.3777 8.73936 45.43 8.90722C45.4823 9.07507 45.4961 9.25251 45.4703 9.42639V11.7584H44.7574V9.60492C44.7574 9.02602 44.5051 8.73812 43.9778 8.73812C43.8585 8.73258 43.7394 8.75283 43.6286 8.7975C43.5179 8.84216 43.4181 8.91018 43.3362 8.99689C43.2542 9.0836 43.1921 9.18694 43.154 9.29985C43.1158 9.41275 43.1026 9.53254 43.1153 9.65101V11.7584H42.4023L42.4023 8.15609Z" fill="white"/>
<path d="M74.2208 7.25903V8.17231H75.0035V8.77114H74.2208V10.6235C74.2208 11.0008 74.3767 11.1661 74.7316 11.1661C74.8225 11.1658 74.9132 11.1603 75.0035 11.1497V11.7418C74.8754 11.7647 74.7457 11.7768 74.6156 11.7782C73.8228 11.7782 73.5071 11.5 73.5071 10.8055V8.77111H72.9336V8.17228H73.5071V7.25903H74.2208Z" fill="white"/>
<path d="M29.5455 6.98491C29.858 6.96254 30.1717 7.00963 30.4638 7.12278C30.7559 7.23592 31.0192 7.41231 31.2346 7.63921C31.4501 7.86611 31.6124 8.13787 31.7098 8.43488C31.8072 8.7319 31.8373 9.04677 31.7979 9.35678C31.7979 10.8818 30.9713 11.7584 29.5455 11.7584H27.8164V6.98491H29.5455ZM28.5599 11.0833H29.4624C29.6858 11.0966 29.9093 11.0601 30.1167 10.9764C30.3241 10.8927 30.5102 10.764 30.6614 10.5995C30.8126 10.4351 30.9252 10.2391 30.9908 10.0258C31.0565 9.81246 31.0737 9.58725 31.041 9.36651C31.0713 9.14664 31.0524 8.92282 30.9857 8.71109C30.919 8.49936 30.8062 8.30496 30.6554 8.14182C30.5045 7.97867 30.3193 7.85083 30.113 7.76744C29.9068 7.68405 29.6846 7.64718 29.4624 7.65948H28.5599V11.0833Z" fill="white"/>
<path d="M75.9805 6.74976H76.6871V8.73492H76.7435C76.8383 8.52746 76.9949 8.35419 77.192 8.23871C77.3891 8.12323 77.6172 8.07116 77.845 8.0896C78.0199 8.08012 78.1947 8.10923 78.357 8.17486C78.5192 8.24049 78.665 8.34103 78.7838 8.4693C78.9026 8.59757 78.9916 8.75041 79.0444 8.91692C79.0972 9.08343 79.1124 9.2595 79.0891 9.43257V11.7584H78.3755V9.60796C78.3755 9.03256 78.1067 8.74116 77.603 8.74116C77.4805 8.73113 77.3572 8.74793 77.2419 8.79038C77.1265 8.83282 77.0219 8.89988 76.9352 8.98687C76.8486 9.07386 76.7821 9.17868 76.7403 9.29399C76.6985 9.4093 76.6825 9.53232 76.6934 9.65444V11.7583H75.9805L75.9805 6.74976Z" fill="white"/>
<path d="M56.4375 9.95563C56.4375 8.81735 57.0243 8.09625 57.937 8.09625C58.1628 8.08588 58.3868 8.1398 58.583 8.25172C58.7792 8.36363 58.9393 8.52892 59.0448 8.72825H59.0981V6.74976H59.811V11.7583H59.1278V11.1892H59.0714C58.9578 11.3872 58.7921 11.5504 58.5921 11.6612C58.3922 11.772 58.1656 11.8261 57.937 11.8177C57.018 11.8178 56.4375 11.0966 56.4375 9.95563ZM57.174 9.95563C57.174 10.7197 57.5351 11.1795 58.1392 11.1795C58.7401 11.1795 59.1114 10.7131 59.1114 9.95876C59.1114 9.20797 58.7362 8.73492 58.1392 8.73492C57.539 8.73492 57.1739 9.19781 57.1739 9.95563H57.174Z" fill="white"/>
<path d="M46.6055 6.74976H47.3184V11.7583H46.6055V6.74976Z" fill="white"/>
</svg>
