<?xml version="1.0" encoding="utf-8"?>
<!-- Generator: Adobe Illustrator 23.0.3, SVG Export Plug-In . SVG Version: 6.00 Build 0)  -->
<svg version="1.1" id="Layer_1" xmlns="http://www.w3.org/2000/svg" xmlns:xlink="http://www.w3.org/1999/xlink" x="0px" y="0px"
	 viewBox="0 0 619.3 453.9" style="enable-background:new 0 0 619.3 453.9;" xml:space="preserve">
<style type="text/css">
	.st0{fill:#A8112C;}
</style>
<title>harmet-metal-logo0</title>
<title>harmet-metal-logo0</title>
<g>
	<rect x="19.2" y="151" class="st0" width="16" height="79.8"/>
	<polygon class="st0" points="83.1,151 83.1,182.9 43.1,182.9 43.1,198.9 83.1,198.9 83.1,230.8 99,230.8 99,151 	"/>
	<polygon class="st0" points="123,151 123,230.8 139,230.8 139,166.9 186.9,166.9 186.9,182.9 146.9,182.9 146.9,198.9 186.9,198.9 
		186.9,230.8 202.8,230.8 202.8,151 	"/>
	<polygon class="st0" points="226.7,151 226.7,230.8 242.7,230.8 242.7,166.9 290.5,166.9 290.5,182.9 250.6,182.9 250.6,198.9 
		290.5,198.9 290.5,230.8 306.5,230.8 306.5,199.6 298.1,191.3 306.5,182.9 306.5,151 	"/>
	<polygon class="st0" points="330.1,151 330.1,230.8 346.1,230.8 346.1,166.9 369.7,166.9 369.7,230.8 385.7,230.8 385.7,166.9 
		410,166.9 410,230.8 425.9,230.8 425.9,151 	"/>
	<polygon class="st0" points="521.6,166.9 521.6,166.9 521.6,151 449.5,151 449.5,230.8 521.6,230.8 521.6,214.8 465.5,214.8 
		465.5,198.9 514.3,198.9 514.3,182.9 465.5,182.9 465.5,166.9 	"/>
	<polygon class="st0" points="608.8,151 537,151 537,166.9 564.9,166.9 564.9,230.8 580.9,230.8 580.9,166.9 608.8,166.9 	"/>
	<rect x="123" class="st0" width="95.7" height="95.7"/>
	<rect x="409.7" class="st0" width="95.7" height="95.7"/>
	<rect x="123" y="358.2" class="st0" width="95.7" height="95.7"/>
	<rect x="409.7" y="358.2" class="st0" width="95.7" height="95.7"/>
	<g>
		<path class="st0" d="M38.5,321.1c-7.4,0-12.4-2.2-15.1-6.5c-2.6-4.4-4-11.5-4-21.5c0-10,1.3-17.1,4-21.3c2.7-4.2,7.7-6.3,15-6.3
			c4.4,0,9.2,0.7,14.5,2l-0.3,7.1c-4.4-0.8-8.9-1.3-13.3-1.3s-7.5,1.4-9,4.2c-1.6,2.8-2.4,8.1-2.4,15.8c0,7.7,0.8,13,2.3,15.8
			c1.5,2.8,4.5,4.2,9,4.2s8.9-0.4,13.5-1.2l0.2,7.2C47.9,320.5,43,321.1,38.5,321.1"/>
		<path class="st0" d="M99.3,314.5c-3,4.4-8.4,6.6-16,6.6c-7.7,0-13-2.2-16.1-6.7c-3.1-4.4-4.6-11.4-4.6-20.9
			c0-9.5,1.6-16.6,4.6-21.2c3.1-4.6,8.4-6.9,16-6.9c7.6,0,12.9,2.3,16,6.9c3.1,4.6,4.6,11.7,4.6,21.2
			C103.9,303.1,102.4,310.1,99.3,314.5 M73.7,308.8c1.7,3.1,4.9,4.7,9.6,4.7s7.9-1.5,9.6-4.6c1.7-3,2.5-8.2,2.5-15.3
			c0-7.2-0.9-12.4-2.6-15.6c-1.7-3.3-4.9-4.9-9.5-4.9c-4.6,0-7.8,1.6-9.5,4.9c-1.7,3.2-2.6,8.4-2.6,15.6
			C71.2,300.6,72,305.7,73.7,308.8"/>
		<polygon class="st0" points="117.1,320.2 117.1,266.3 131.5,266.3 146.9,312.5 148,312.5 148,266.3 156.2,266.3 156.2,320.2 
			142.2,320.2 126.4,273.9 125.4,273.9 125.4,320.2 		"/>
		<path class="st0" d="M186.5,273c-6.3,0-9.4,2.3-9.4,7c0,2.4,0.7,4.1,2.2,5.2c1.5,1,4.8,2.3,9.8,3.8c5.1,1.5,8.6,3.3,10.7,5.4
			c2.1,2.1,3.1,5.3,3.1,9.8c0,5.7-1.5,9.9-4.6,12.7c-3,2.8-7.2,4.2-12.4,4.2c-4.2,0-8.8-0.5-13.9-1.6l-2.7-0.6l0.8-7
			c6.7,0.9,11.7,1.4,15.2,1.4c6.1,0,9.2-2.9,9.2-8.7c0-2.3-0.7-3.9-2.1-5c-1.4-1.1-4.5-2.3-9.3-3.5c-4.9-1.3-8.5-3.1-10.8-5.3
			c-2.4-2.3-3.6-5.8-3.6-10.7c0-4.9,1.5-8.6,4.5-11.1c3-2.5,7.1-3.7,12.4-3.7c3.8,0,8.3,0.5,13.5,1.4l2.6,0.5l-0.7,7.1
			C194.3,273.5,189.4,273,186.5,273"/>
		<polygon class="st0" points="210.7,274.1 210.7,266.3 247.7,266.3 247.7,274.1 233.4,274.1 233.4,320.2 225.1,320.2 225.1,274.1 
					"/>
		<path class="st0" d="M266.4,301v19.2h-8.2v-54h19.3c11.4,0,17.2,5.7,17.2,17.2c0,7.7-2.8,12.9-8.3,15.6l8.4,21.2h-9l-7.3-19.2
			H266.4z M286.2,283.5c0-6.5-2.9-9.7-8.7-9.7h-11v19.6h11.2c3,0,5.1-0.9,6.5-2.7C285.5,288.9,286.2,286.5,286.2,283.5"/>
		<path class="st0" d="M315.5,303c0,7,3.5,10.5,10.4,10.5c6.9,0,10.4-3.5,10.4-10.5v-36.7h8.3v36.6c0,6.4-1.6,11-4.7,13.9
			c-3.1,2.9-7.8,4.4-14,4.4c-6.2,0-10.9-1.5-14-4.4c-3.1-2.9-4.7-7.5-4.7-13.9v-36.6h8.3V303z"/>
		<path class="st0" d="M376.5,321.1c-7.4,0-12.4-2.2-15.1-6.5c-2.6-4.4-4-11.5-4-21.5c0-10,1.3-17.1,4-21.3c2.7-4.2,7.7-6.3,15-6.3
			c4.4,0,9.2,0.7,14.5,2l-0.3,7.1c-4.4-0.8-8.9-1.3-13.3-1.3c-4.4,0-7.5,1.4-9,4.2c-1.6,2.8-2.4,8.1-2.4,15.8c0,7.7,0.8,13,2.3,15.8
			c1.5,2.8,4.5,4.2,9,4.2c4.4,0,8.9-0.4,13.5-1.2l0.2,7.2C385.9,320.5,381.1,321.1,376.5,321.1"/>
		<polygon class="st0" points="398.6,274.1 398.6,266.3 435.6,266.3 435.6,274.1 421.3,274.1 421.3,320.2 413,320.2 413,274.1 		"/>
		<rect x="446.2" y="266.3" class="st0" width="8.2" height="54"/>
		<path class="st0" d="M504.2,314.5c-3,4.4-8.4,6.6-16,6.6c-7.7,0-13-2.2-16.1-6.7c-3.1-4.4-4.6-11.4-4.6-20.9
			c0-9.5,1.6-16.6,4.6-21.2c3.1-4.6,8.4-6.9,16-6.9c7.6,0,12.9,2.3,16,6.9c3.1,4.6,4.6,11.7,4.6,21.2
			C508.8,303.1,507.3,310.1,504.2,314.5 M478.6,308.8c1.7,3.1,4.9,4.7,9.6,4.7s7.9-1.5,9.6-4.6c1.7-3,2.5-8.2,2.5-15.3
			c0-7.2-0.9-12.4-2.6-15.6c-1.7-3.3-4.9-4.9-9.5-4.9c-4.6,0-7.8,1.6-9.5,4.9c-1.7,3.2-2.6,8.4-2.6,15.6
			C476.1,300.6,476.9,305.7,478.6,308.8"/>
		<polygon class="st0" points="522,320.2 522,266.3 536.4,266.3 551.8,312.5 552.9,312.5 552.9,266.3 561.1,266.3 561.1,320.2 
			547.1,320.2 531.3,273.9 530.3,273.9 530.3,320.2 		"/>
		<path class="st0" d="M591.4,273c-6.3,0-9.4,2.3-9.4,7c0,2.4,0.7,4.1,2.2,5.2c1.5,1,4.8,2.3,9.8,3.8c5.1,1.5,8.6,3.3,10.7,5.4
			c2.1,2.1,3.1,5.3,3.1,9.8c0,5.7-1.5,9.9-4.6,12.7c-3,2.8-7.2,4.2-12.4,4.2c-4.2,0-8.8-0.5-13.9-1.6l-2.7-0.6l0.8-7
			c6.7,0.9,11.7,1.4,15.2,1.4c6.1,0,9.2-2.9,9.2-8.7c0-2.3-0.7-3.9-2.1-5c-1.4-1.1-4.5-2.3-9.3-3.5c-4.9-1.3-8.5-3.1-10.8-5.3
			c-2.4-2.3-3.6-5.8-3.6-10.7c0-4.9,1.5-8.6,4.5-11.1c3-2.5,7.1-3.7,12.4-3.7c3.8,0,8.3,0.5,13.5,1.4l2.6,0.5l-0.7,7.1
			C599.2,273.5,594.3,273,591.4,273"/>
	</g>
</g>
</svg>
