<svg width="150" height="45" viewBox="0 0 109 32" fill="none" xmlns="http://www.w3.org/2000/svg">
<g clip-path="url(#clip0)">
<path d="M104.398 0H4.39844C2.1893 0 0.398438 1.79086 0.398438 4V28C0.398438 30.2091 2.1893 32 4.39844 32H104.398C106.608 32 108.398 30.2091 108.398 28V4C108.398 1.79086 106.608 0 104.398 0Z" fill="black"/>
<path d="M54.9113 17.4C54.2373 17.4016 53.5788 17.603 53.0193 17.9788C52.4597 18.3546 52.0242 18.8879 51.7677 19.5112C51.5112 20.1345 51.4453 20.8199 51.5784 21.4807C51.7114 22.1415 52.0374 22.748 52.5152 23.2234C52.9929 23.6989 53.6009 24.0221 54.2623 24.152C54.9237 24.282 55.6088 24.2129 56.2309 23.9535C56.853 23.6941 57.3842 23.256 57.7574 22.6947C58.1306 22.1334 58.3289 21.474 58.3273 20.8C58.3338 20.3503 58.2498 19.904 58.0802 19.4875C57.9107 19.071 57.659 18.6928 57.3403 18.3756C57.0216 18.0584 56.6423 17.8085 56.225 17.6409C55.8077 17.4733 55.3609 17.3914 54.9113 17.4ZM54.9113 22.864C54.4982 22.8929 54.0859 22.7968 53.7281 22.5883C53.3703 22.3798 53.0834 22.0684 52.9049 21.6947C52.7264 21.321 52.6644 20.9023 52.727 20.4929C52.7897 20.0835 52.974 19.7024 53.2561 19.3992C53.5382 19.096 53.9049 18.8846 54.3087 18.7926C54.7125 18.7006 55.1346 18.7322 55.5202 18.8833C55.9059 19.0343 56.2371 19.2979 56.4709 19.6398C56.7047 19.9816 56.8303 20.3858 56.8313 20.8C56.8442 21.0624 56.8044 21.3247 56.7143 21.5715C56.6242 21.8183 56.4856 22.0446 56.3066 22.2369C56.1277 22.4293 55.912 22.5839 55.6724 22.6916C55.4327 22.7993 55.174 22.8579 54.9113 22.864ZM47.4553 17.4C46.7813 17.4016 46.1228 17.603 45.5633 17.9788C45.0037 18.3546 44.5682 18.8879 44.3117 19.5112C44.0552 20.1345 43.9893 20.8199 44.1224 21.4807C44.2554 22.1415 44.5814 22.748 45.0592 23.2234C45.5369 23.6989 46.1449 24.0221 46.8063 24.152C47.4677 24.282 48.1528 24.2129 48.7749 23.9535C49.397 23.6941 49.9282 23.256 50.3014 22.6947C50.6746 22.1334 50.8729 21.474 50.8713 20.8C50.8778 20.3503 50.7938 19.904 50.6242 19.4875C50.4547 19.071 50.203 18.6928 49.8843 18.3756C49.5656 18.0584 49.1863 17.8085 48.769 17.6409C48.3517 17.4733 47.9049 17.3914 47.4553 17.4ZM47.4553 22.864C47.0422 22.8929 46.6299 22.7968 46.2721 22.5883C45.9143 22.3798 45.6274 22.0684 45.4489 21.6947C45.2704 21.321 45.2084 20.9023 45.271 20.4929C45.3337 20.0835 45.518 19.7024 45.8001 19.3992C46.0822 19.096 46.4489 18.8846 46.8527 18.7926C47.2565 18.7006 47.6786 18.7322 48.0642 18.8833C48.4499 19.0343 48.7811 19.2979 49.0149 19.6398C49.2487 19.9816 49.3743 20.3858 49.3753 20.8C49.3882 21.0624 49.3484 21.3247 49.2583 21.5715C49.1682 21.8183 49.0296 22.0446 48.8506 22.2369C48.6717 22.4293 48.456 22.5839 48.2164 22.6916C47.9767 22.7993 47.718 22.8579 47.4553 22.864ZM38.5913 18.448V19.888H42.0473C41.9931 20.5662 41.7112 21.2062 41.2473 21.704C40.9006 22.0572 40.4837 22.3337 40.0234 22.5156C39.5631 22.6975 39.0698 22.7808 38.5753 22.76C37.5569 22.76 36.5801 22.3554 35.86 21.6353C35.1399 20.9151 34.7353 19.9384 34.7353 18.92C34.7353 17.9016 35.1399 16.9248 35.86 16.2047C36.5801 15.4846 37.5569 15.08 38.5753 15.08C39.5517 15.0655 40.4944 15.4362 41.1993 16.112L42.2153 15.096C41.7385 14.6244 41.1724 14.2527 40.5501 14.0027C39.9278 13.7527 39.2619 13.6294 38.5913 13.64C37.8801 13.6123 37.1706 13.7285 36.5054 13.9816C35.8402 14.2346 35.2329 14.6194 34.7199 15.1128C34.2069 15.6062 33.7988 16.1981 33.5201 16.8529C33.2413 17.5078 33.0977 18.2122 33.0977 18.924C33.0977 19.6357 33.2413 20.3401 33.5201 20.995C33.7988 21.6499 34.2069 22.2418 34.7199 22.7352C35.2329 23.2286 35.8402 23.6133 36.5054 23.8664C37.1706 24.1195 37.8801 24.2357 38.5913 24.208C39.2756 24.2353 39.958 24.1176 40.5936 23.8625C41.2292 23.6074 41.8037 23.2208 42.2793 22.728C43.1194 21.8051 43.567 20.5913 43.5273 19.344C43.5302 19.0438 43.5061 18.7439 43.4553 18.448H38.5913ZM74.8393 19.568C74.6307 18.9542 74.2405 18.4182 73.7205 18.0311C73.2005 17.6439 72.5752 17.4238 71.9273 17.4C71.4897 17.3991 71.0566 17.488 70.6547 17.6612C70.2528 17.8344 69.8907 18.0882 69.5908 18.4068C69.2909 18.7255 69.0595 19.1023 68.911 19.5139C68.7625 19.9255 68.7 20.3632 68.7273 20.8C68.7205 21.5303 68.9501 22.2432 69.3818 22.8322C69.8135 23.4212 70.4242 23.8548 71.1227 24.0681C71.8212 24.2814 72.5699 24.2631 73.2571 24.0158C73.9442 23.7684 74.533 23.3055 74.9353 22.696L73.7753 21.896C73.6024 22.1842 73.3571 22.4222 73.0638 22.5864C72.7705 22.7506 72.4394 22.8353 72.1033 22.832C71.7566 22.8463 71.4136 22.7554 71.1195 22.5712C70.8254 22.387 70.5938 22.1182 70.4553 21.8L75.0073 19.92L74.8393 19.568ZM70.1993 20.704C70.1831 20.4555 70.2166 20.2063 70.2979 19.9709C70.3792 19.7355 70.5067 19.5187 70.6728 19.3332C70.839 19.1477 71.0404 18.9972 71.2655 18.8905C71.4905 18.7839 71.7345 18.7232 71.9833 18.712C72.2411 18.6963 72.4977 18.7569 72.7212 18.8864C72.9446 19.0159 73.1248 19.2085 73.2393 19.44L70.1993 20.704ZM66.5033 24H67.9993V14H66.5033V24ZM64.0553 18.16H63.9993C63.7758 17.9055 63.5 17.7022 63.1907 17.5642C62.8814 17.4261 62.546 17.3564 62.2073 17.36C61.3331 17.4024 60.5086 17.7795 59.9049 18.4133C59.3011 19.047 58.9644 19.8887 58.9644 20.764C58.9644 21.6393 59.3011 22.481 59.9049 23.1147C60.5086 23.7484 61.3331 24.1256 62.2073 24.168C62.5465 24.1748 62.883 24.1066 63.1927 23.9683C63.5025 23.83 63.7779 23.625 63.9993 23.368H64.0553V23.856C64.0553 25.16 63.3593 25.856 62.2393 25.856C61.8652 25.8478 61.5019 25.7285 61.1957 25.5135C60.8894 25.2984 60.654 24.9971 60.5193 24.648L59.2233 25.184C59.4629 25.7858 59.8795 26.3007 60.418 26.6607C60.9565 27.0206 61.5916 27.2087 62.2393 27.2C63.9913 27.2 65.4393 26.168 65.4393 23.656V17.6H64.0553V18.16ZM62.3353 22.864C61.8111 22.8313 61.3192 22.6 60.9595 22.2173C60.5999 21.8346 60.3997 21.3292 60.3997 20.804C60.3997 20.2788 60.5999 19.7734 60.9595 19.3907C61.3192 19.0079 61.8111 18.7767 62.3353 18.744C62.5915 18.755 62.8428 18.8175 63.0744 18.9277C63.3059 19.0379 63.513 19.1935 63.6831 19.3853C63.8533 19.5771 63.9832 19.8012 64.065 20.0443C64.1468 20.2873 64.1789 20.5443 64.1593 20.8C64.1811 21.0565 64.1507 21.3149 64.0698 21.5593C63.989 21.8038 63.8594 22.0293 63.6889 22.2222C63.5184 22.4152 63.3105 22.5715 63.0779 22.6818C62.8452 22.7921 62.5926 22.8541 62.3353 22.864ZM81.8473 14H78.2633V24H79.7593V20.208H81.8473C82.2737 20.2386 82.7018 20.1811 83.1049 20.039C83.5081 19.8969 83.8776 19.6732 84.1905 19.382C84.5034 19.0908 84.753 18.7382 84.9236 18.3463C85.0942 17.9543 85.1823 17.5314 85.1823 17.104C85.1823 16.6765 85.0942 16.2536 84.9236 15.8617C84.753 15.4698 84.5034 15.1172 84.1905 14.826C83.8776 14.5348 83.5081 14.3111 83.1049 14.169C82.7018 14.0269 82.2737 13.9694 81.8473 14ZM81.8473 18.8H79.7593V15.392H81.8793C82.1041 15.392 82.3268 15.4363 82.5345 15.5223C82.7422 15.6083 82.9309 15.7344 83.0899 15.8934C83.2488 16.0524 83.375 16.2411 83.461 16.4488C83.547 16.6565 83.5913 16.8792 83.5913 17.104C83.5913 17.3288 83.547 17.5514 83.461 17.7591C83.375 17.9669 83.2488 18.1556 83.0899 18.3146C82.9309 18.4735 82.7422 18.5996 82.5345 18.6857C82.3268 18.7717 82.1041 18.816 81.8793 18.816L81.8473 18.8ZM91.0793 17.368C90.5345 17.3344 89.9918 17.4612 89.5183 17.7328C89.0449 18.0044 88.6614 18.4088 88.4153 18.896L89.7353 19.448C89.8687 19.2075 90.0688 19.0108 90.3116 18.8816C90.5544 18.7524 90.8293 18.6963 91.1033 18.72C91.2932 18.6978 91.4856 18.7137 91.6694 18.7666C91.8531 18.8196 92.0244 18.9087 92.1733 19.0286C92.3223 19.1484 92.4458 19.2968 92.5368 19.465C92.6278 19.6331 92.6844 19.8177 92.7033 20.008V20.104C92.2222 19.8511 91.6868 19.7193 91.1433 19.72C89.7193 19.72 88.2633 20.52 88.2633 21.976C88.2774 22.2855 88.3535 22.5889 88.4872 22.8684C88.6209 23.1479 88.8093 23.3977 89.0414 23.6029C89.2735 23.8081 89.5444 23.9646 89.8382 24.063C90.1319 24.1615 90.4424 24.1999 90.7513 24.176C91.1267 24.1968 91.5009 24.1173 91.8355 23.9458C92.17 23.7743 92.453 23.5169 92.6553 23.2H92.7033V24H94.1433V20.152C94.1433 18.4 92.8153 17.384 91.1113 17.384L91.0793 17.368ZM90.8953 22.848C90.4073 22.848 89.7273 22.6 89.7273 22C89.7273 21.2 90.5753 20.928 91.3273 20.928C91.8025 20.9163 92.2722 21.0323 92.6873 21.264C92.6371 21.6984 92.4311 22.1 92.1075 22.3942C91.7839 22.6883 91.3646 22.8553 90.9273 22.864L90.8953 22.848ZM99.3913 17.6L97.6793 21.936H97.6313L95.8553 17.6H94.2553L96.9193 23.664L95.3993 27.032H96.9593L101.055 17.6H99.3913ZM85.9513 24H87.4393V14H85.9513V24Z" fill="white"/>
<path d="M21.9987 19.4239L18.7188 16.1199V15.8799L21.9987 12.5759L22.0707 12.6239L25.9988 14.8479C27.1188 15.4799 27.1188 16.5199 25.9988 17.1599L22.0868 19.3839L21.9987 19.4239Z" fill="url(#paint0_linear)"/>
<path d="M8.75054 6.03208C8.48691 6.34377 8.3524 6.74445 8.37453 7.15208V24.8481C8.34731 25.2564 8.48245 25.6589 8.75054 25.9681L8.80653 26.0321L18.7185 16.1201V15.8801L8.80653 5.97607L8.75054 6.03208Z" fill="url(#paint1_linear)"/>
<path d="M22.094 19.376L18.718 16L8.75 25.968C8.97606 26.1692 9.26541 26.285 9.56788 26.2952C9.87035 26.3054 10.1669 26.2095 10.406 26.024L22.094 19.376Z" fill="url(#paint2_linear)"/>
<path opacity="0.2" d="M21.998 19.304L10.406 25.904C10.1756 26.0779 9.89471 26.172 9.606 26.172C9.31729 26.172 9.03644 26.0779 8.806 25.904L8.75 25.96L8.806 26.024C9.03644 26.1979 9.31729 26.292 9.606 26.292C9.89471 26.292 10.1756 26.1979 10.406 26.024L22.094 19.376L21.998 19.304Z" fill="black"/>
<path opacity="0.12" d="M8.75112 25.856C8.49416 25.5387 8.36823 25.1352 8.39912 24.728V24.848C8.3719 25.2563 8.50704 25.6589 8.77512 25.968L8.83112 25.912L8.75112 25.856Z" fill="black"/>
<path opacity="0.12" d="M26 17.04L22 19.304L22.072 19.376L26 17.152C26.2319 17.054 26.433 16.8952 26.5822 16.6925C26.7315 16.4897 26.8233 16.2505 26.848 16C26.798 16.2277 26.6952 16.4404 26.5479 16.621C26.4006 16.8017 26.2129 16.9452 26 17.04Z" fill="black"/>
<path d="M22.094 12.6239L10.406 5.98393C10.1684 5.79586 9.87214 5.69757 9.56926 5.70635C9.26638 5.71513 8.97629 5.83041 8.75 6.03193L18.718 15.9999L22.094 12.6239Z" fill="url(#paint3_linear)"/>
<path opacity="0.25" d="M10.407 6.09593L25.999 14.9599C26.2119 15.0548 26.3996 15.1983 26.5469 15.3789C26.6942 15.5596 26.797 15.7723 26.847 15.9999C26.8223 15.7494 26.7305 15.5102 26.5812 15.3075C26.432 15.1047 26.2309 14.946 25.999 14.8479L10.407 5.98393C9.295 5.34393 8.375 5.87193 8.375 7.15193V7.27193C8.399 5.99193 9.295 5.46393 10.407 6.09593Z" fill="white"/>
<path d="M60.8633 10.4001V5.6001H61.6073L63.9433 9.3361V8.4081V5.6001H64.5593V10.4001H63.9193L61.4793 6.4881V7.4081V10.4001H60.8633Z" fill="white" stroke="white" stroke-width="0.2" stroke-miterlimit="10"/>
<path d="M51.7022 10.4001H51.0862V6.1921H49.7422V5.6001H53.0382V6.1921H51.7022V10.4001Z" fill="white" stroke="white" stroke-width="0.2" stroke-miterlimit="10"/>
<path d="M48.3516 10.4001V5.6001H48.9676V10.4001H48.3516Z" fill="white" stroke="white" stroke-width="0.2" stroke-miterlimit="10"/>
<path d="M44.6241 10.4001H44.0081V6.1921H42.6641V5.6001H46.0001V6.1921H44.6241V10.4001Z" fill="white" stroke="white" stroke-width="0.2" stroke-miterlimit="10"/>
<path d="M41.9988 6.1921H39.8388V7.7121H41.8068V8.2881H39.8388V9.8081H41.9988V10.4001H39.2148V5.6001H41.9988V6.1921Z" fill="white" stroke="white" stroke-width="0.2" stroke-miterlimit="10"/>
<path d="M59.2866 9.77592C59.0555 10.0072 58.7811 10.1906 58.4791 10.3158C58.1772 10.4409 57.8535 10.5054 57.5266 10.5054C57.1997 10.5054 56.876 10.4409 56.574 10.3158C56.272 10.1906 55.9976 10.0072 55.7666 9.77592C55.3143 9.29516 55.0625 8.65997 55.0625 7.99992C55.0625 7.33987 55.3143 6.70468 55.7666 6.22392C55.9926 5.98616 56.2661 5.79851 56.5693 5.6731C56.8725 5.5477 57.1986 5.48734 57.5266 5.49592C57.8541 5.49074 58.1792 5.55266 58.4819 5.67786C58.7846 5.80306 59.0584 5.98889 59.2866 6.22392C59.5166 6.45791 59.6974 6.73563 59.8183 7.04066C59.9392 7.3457 59.9978 7.67187 59.9906 7.99992C60.0011 8.32838 59.944 8.65549 59.8229 8.96099C59.7018 9.26648 59.5192 9.54386 59.2866 9.77592ZM56.2226 9.37592C56.393 9.54862 56.596 9.68575 56.8199 9.77935C57.0437 9.87294 57.2839 9.92114 57.5266 9.92114C57.7692 9.92114 58.0094 9.87294 58.2333 9.77935C58.4571 9.68575 58.6601 9.54862 58.8306 9.37592C59.1758 9.00082 59.3674 8.50968 59.3674 7.99992C59.3674 7.49016 59.1758 6.99902 58.8306 6.62392C58.6601 6.45122 58.4571 6.31409 58.2333 6.22049C58.0094 6.1269 57.7692 6.0787 57.5266 6.0787C57.2839 6.0787 57.0437 6.1269 56.8199 6.22049C56.596 6.31409 56.393 6.45122 56.2226 6.62392C55.8774 6.99902 55.6858 7.49016 55.6858 7.99992C55.6858 8.50968 55.8774 9.00082 56.2226 9.37592Z" fill="white" stroke="white" stroke-width="0.2" stroke-miterlimit="10"/>
<path d="M38.3356 8.19192C38.3488 8.4853 38.3024 8.77831 38.1993 9.05328C38.0961 9.32826 37.9384 9.57952 37.7356 9.79192C37.5084 10.0266 37.2341 10.2106 36.9308 10.3319C36.6275 10.4532 36.302 10.5091 35.9756 10.4959C35.6474 10.5032 35.3211 10.4431 35.017 10.3193C34.7129 10.1954 34.4374 10.0105 34.2076 9.77592C33.7415 9.2991 33.4805 8.65875 33.4805 7.99192C33.4805 7.32509 33.7415 6.68475 34.2076 6.20792C34.564 5.85967 35.0154 5.62451 35.505 5.53199C35.9947 5.43948 36.5007 5.49372 36.9596 5.68792C37.2481 5.80651 37.5054 5.98991 37.7116 6.22392L37.2876 6.64792C37.1288 6.45654 36.9275 6.30483 36.6997 6.20485C36.472 6.10486 36.224 6.05935 35.9756 6.07192C35.662 6.07409 35.3538 6.15304 35.0777 6.30185C34.8017 6.45067 34.5663 6.66484 34.3922 6.92562C34.218 7.18641 34.1104 7.48589 34.0787 7.79787C34.047 8.10986 34.0923 8.42485 34.2104 8.71533C34.3286 9.00581 34.5161 9.26292 34.7566 9.4642C34.997 9.66547 35.2831 9.80478 35.5899 9.86996C35.8966 9.93513 36.2147 9.92417 36.5162 9.83805C36.8177 9.75193 37.0936 9.59327 37.3196 9.37592C37.564 9.108 37.7057 8.76227 37.7196 8.39992H35.9756V7.82392H38.3036C38.3218 7.94582 38.3325 8.06872 38.3356 8.19192Z" fill="white" stroke="white" stroke-width="0.2" stroke-miterlimit="10"/>
</g>
<defs>
<linearGradient id="paint0_linear" x1="27.4628" y1="15.9999" x2="8.11075" y2="15.9999" gradientUnits="userSpaceOnUse">
<stop stop-color="#FFE000"/>
<stop offset="0.41" stop-color="#FFBD00"/>
<stop offset="0.78" stop-color="#FFA500"/>
<stop offset="1" stop-color="#FF9C00"/>
</linearGradient>
<linearGradient id="paint1_linear" x1="17.8385" y1="6.96807" x2="4.41454" y2="20.3921" gradientUnits="userSpaceOnUse">
<stop stop-color="#00A0FF"/>
<stop offset="0.01" stop-color="#00A1FF"/>
<stop offset="0.26" stop-color="#00BEFF"/>
<stop offset="0.51" stop-color="#00D2FF"/>
<stop offset="0.76" stop-color="#00DFFF"/>
<stop offset="1" stop-color="#00E3FF"/>
</linearGradient>
<linearGradient id="paint2_linear" x1="20.262" y1="17.84" x2="2.054" y2="36.04" gradientUnits="userSpaceOnUse">
<stop stop-color="#FF3A44"/>
<stop offset="1" stop-color="#C31162"/>
</linearGradient>
<linearGradient id="paint3_linear" x1="6.238" y1="0.143928" x2="14.366" y2="8.27193" gradientUnits="userSpaceOnUse">
<stop stop-color="#32A071"/>
<stop offset="0.07" stop-color="#2DA771"/>
<stop offset="0.48" stop-color="#15CF74"/>
<stop offset="0.8" stop-color="#06E775"/>
<stop offset="1" stop-color="#00F076"/>
</linearGradient>
<clipPath id="clip0">
<rect width="108" height="32" fill="white" transform="translate(0.398438)"/>
</clipPath>
</defs>
</svg>
