<?xml version="1.0" encoding="UTF-8" standalone="no"?>
<svg
   width="300"
   height="70"
   viewBox="0 0 300 70"
   version="1.1"
   id="svg842"
   sodipodi:docname="skynet_logo_small.svg"
   inkscape:version="1.1.2 (b8e25be833, 2022-02-05)"
   xmlns:inkscape="http://www.inkscape.org/namespaces/inkscape"
   xmlns:sodipodi="http://sodipodi.sourceforge.net/DTD/sodipodi-0.dtd"
   xmlns="http://www.w3.org/2000/svg"
   xmlns:svg="http://www.w3.org/2000/svg">
  <sodipodi:namedview
     id="namedview844"
     pagecolor="#ffffff"
     bordercolor="#666666"
     borderopacity="1.0"
     inkscape:pageshadow="2"
     inkscape:pageopacity="0.0"
     inkscape:pagecheckerboard="0"
     showgrid="false"
     inkscape:zoom="4.3766667"
     inkscape:cx="150"
     inkscape:cy="34.958111"
     inkscape:window-width="1920"
     inkscape:window-height="1017"
     inkscape:window-x="-8"
     inkscape:window-y="-8"
     inkscape:window-maximized="1"
     inkscape:current-layer="svg842" />
  <defs
     id="defs837">
    <style
       id="style835">
      .cls-1 {
        fill-rule: evenodd;
      }
    </style>
  </defs>
  <path
     id="INTELLIGENCE"
     class="cls-1"
     d="M94.646,55.25H92.115l2.317-10.012h2.532l0.636-2.75H88.515l-0.635,2.75h2.531L88.094,55.25H85.563L84.927,58h9.084Zm20.878-12.762h-3.7l-2.06,8.98-3.9-8.98h-4.479L97.8,58h3.688l2.478-10.741L108.524,58h3.421Zm16.305,0H118.14l-0.688,3h4.836L119.4,58h4.02l2.889-12.512h4.832Zm2.058,0L130.308,58h11.241l0.666-2.948h-7.229l0.906-3.907h6.71l0.687-2.948h-6.714l0.64-2.761h7.24l0.678-2.948H133.887ZM156.426,55H149.24l2.887-12.512h-4.02L144.528,58h11.2Zm13.21,0H162.45l2.887-12.512h-4.02L157.738,58h11.2Zm10.344,0.25h-2.532l2.317-10.012H182.3l0.635-2.75h-9.083l-0.636,2.75h2.532L173.428,55.25H170.9L170.261,58h9.083Zm14.049,2.709a29.464,29.464,0,0,0,2.954-.844l1.771-7.657H191.6l-0.678,2.927h3.094l-0.7,3.032q-0.23.021-.5,0.031c-0.18.007-.347,0.01-0.5,0.01a5.072,5.072,0,0,1-3.328-.879,3.425,3.425,0,0,1-1.022-2.743,7.94,7.94,0,0,1,.417-2.57,6.634,6.634,0,0,1,1.156-2.123,5.8,5.8,0,0,1,1.886-1.5,5.406,5.406,0,0,1,2.469-.557,6.341,6.341,0,0,1,2.458.464,8.055,8.055,0,0,1,2.365,1.651h0.448l0.886-3.636a11.276,11.276,0,0,0-2.975-1.089,15.866,15.866,0,0,0-3.109-.287,10.03,10.03,0,0,0-7.324,2.829,9.784,9.784,0,0,0-2.886,7.308,5.46,5.46,0,0,0,1.87,4.438,7.83,7.83,0,0,0,5.172,1.563A14.229,14.229,0,0,0,194.029,57.958Zm9.96-15.471L200.41,58h11.241l0.667-2.948h-7.229L206,51.145H212.7l0.687-2.948h-6.713l0.64-2.761h7.24l0.677-2.948H203.989Zm28.362,0h-3.7l-2.061,8.98-3.9-8.98H218.21L214.631,58h3.688L220.8,47.259,225.351,58h3.421Zm9.559,15.7a13.221,13.221,0,0,0,1.4-.333,10.761,10.761,0,0,0,1.2-.432q0.624-.266,1.093-0.453l0.907-3.709h-0.417a11.537,11.537,0,0,1-2.386,1.474,6.391,6.391,0,0,1-2.7.578,3.3,3.3,0,0,1-2.438-.833,3.689,3.689,0,0,1-.833-2.688,7.325,7.325,0,0,1,1.5-4.751,4.712,4.712,0,0,1,3.829-1.865,5,5,0,0,1,2.3.5,7.3,7.3,0,0,1,1.969,1.563H247.8l0.916-3.761a9.236,9.236,0,0,0-2.479-.964,12.822,12.822,0,0,0-2.98-.328,9.931,9.931,0,0,0-3.8.74,9.152,9.152,0,0,0-3.1,2.052,9.868,9.868,0,0,0-2.079,3.209,10.882,10.882,0,0,0-.755,4.136,5.671,5.671,0,0,0,1.709,4.433,6.983,6.983,0,0,0,4.854,1.547A11.1,11.1,0,0,0,241.91,58.188Zm9.825-15.7L248.156,58H259.4l0.667-2.948h-7.23l0.906-3.907h6.71l0.687-2.948h-6.713l0.639-2.761h7.24l0.678-2.948H251.735Z" />
  <path
     id="S"
     class="cls-1"
     d="M44.088,9.114a8.912,8.912,0,0,0-4.368,1.2,19.245,19.245,0,0,0-4.081,3.072,23.9,23.9,0,0,0-3.408,4.176,25.408,25.408,0,0,0-2.352,4.513H81.821q3.36-3.168,6.193-6.433a69.026,69.026,0,0,0,5.041-6.529H44.088ZM62.234,44.446a6.825,6.825,0,0,1-.24,1.824q-0.241.864-1.68,0.864H27.67a6.081,6.081,0,0,0-1.728,1.68q-1.44,1.681-3.12,3.84t-3.168,4.273A27.975,27.975,0,0,0,17.685,60H66.651a9.165,9.165,0,0,0,5.041-1.584,17.548,17.548,0,0,0,4.32-3.984A21.827,21.827,0,0,0,79.036,49.2a14.171,14.171,0,0,0,1.152-5.329V43.294a19.27,19.27,0,0,0-.672-4.8,17.637,17.637,0,0,0-2.064-4.849,12.215,12.215,0,0,0-3.6-3.744,9.232,9.232,0,0,0-5.281-1.488H50.329a4.4,4.4,0,0,1-.816-0.336,3.838,3.838,0,0,1-1.1-.72,0.169,0.169,0,0,1-.192-0.192H29.11a16.913,16.913,0,0,0,1.152,4.849,15.981,15.981,0,0,0,2.592,4.417,13.68,13.68,0,0,0,3.84,3.216,9.958,9.958,0,0,0,4.993,1.248h19.2a1.066,1.066,0,0,1,1.056.816,4.752,4.752,0,0,1,.288,1.584v1.152Zm-45.99,16.9H15.476a32.17,32.17,0,0,1,2.4-3.7q1.823-2.543,3.84-5.185t3.744-4.657Q27.19,45.79,27.67,45.79H60.314a0.459,0.459,0,0,0,.528-0.432,8.38,8.38,0,0,0,.048-0.912V43.87H43.608a10.81,10.81,0,0,1-4.513-.912,12.275,12.275,0,0,1-3.648-2.544,15.985,15.985,0,0,1-5.473-6.385,21.867,21.867,0,0,1-2.3-8.209H49.561a1.684,1.684,0,0,1-.192.48l0.48,0.48a4.936,4.936,0,0,0,.672.288h18.05a10.223,10.223,0,0,1,5.761,1.584,14.035,14.035,0,0,1,4.032,4.08,14.935,14.935,0,0,1,3.648,6.049,21.065,21.065,0,0,1,1.152,6.433V45.79A15.019,15.019,0,0,1,81.917,51.5a23.121,23.121,0,0,1-3.264,5.569A18.8,18.8,0,0,1,74,61.3a10,10,0,0,1-5.425,1.68H17.877ZM93.726,8.73l1.248,1.248,0.864,1.632q-2.4,3.362-5.281,6.769a81.724,81.724,0,0,1-6.337,6.673H30.262L28.63,23.419H27.862A27.244,27.244,0,0,1,30.6,17.947a32.669,32.669,0,0,1,3.936-5.041,21.483,21.483,0,0,1,4.609-3.7,9.659,9.659,0,0,1,4.945-1.44H93.246Z" />
  <path
     id="kynet"
     class="cls-1"
     d="M114.4,10.277l-2.08-2.08,0.107-.267h-11.9L89.654,37.8h0.373l2.027,2.027h11.575l4.213-11.575,7.895,9.548h0.213l2.027,2.027h13.015L120.377,25.212l19.469-14.935-2.08-2.08,0.374-.267H124.058L112.11,16.517ZM90.774,37L101.068,8.73H111.31l-4.641,12.695L124.325,8.73h11.414L117.284,22.865,127.525,37H116.11L105.656,24.305,101.015,37H90.774Zm61.66-28.59-0.16-.48H139.1l6.347,15.682L140.326,37.8H140.7l2.027,2.027H154.3l4.961-13.655,18.028-15.9L175.21,8.2l0.32-.267H161.662l-6.081,5.441-1.227-3.094ZM141.446,37l4.907-13.442L140.326,8.73h11.415l2.667,6.668,7.574-6.667H173.4L156.6,23.558,151.687,37H141.446ZM192.065,8.356l-0.053-.427H177.877L167,37.8h0.373l2.027,2.027h11.575l3.84-10.561,1.6,8.534h0.32l2.027,2.027h13.869L213.4,10.277l-2.08-2.08,0.107-.267H199.64l-4,10.935-1.6-8.588ZM168.116,37L178.41,8.73h12.909l3.04,15.9,5.814-15.9h10.135L200.013,37H187.105l-2.987-15.9L178.357,37H168.116Zm36.324,0.8h0.373l2.027,2.027h27.737a5.5,5.5,0,0,0,.747-0.56q0.693-.56,1.6-1.36t1.814-1.707a12.14,12.14,0,0,0,1.386-1.6h-0.053a7.794,7.794,0,0,0,.427-0.667q0.266-.453.56-0.987t0.56-.987c0.177-.3.3-0.507,0.373-0.613l-2.08-2.027a0.3,0.3,0,0,0,.107-0.16,0.216,0.216,0,0,1,.053-0.16H233.03l8.535-8.054-2.081-2.08,0.107-.107h2.454a3.068,3.068,0,0,0,1.547-1.013,30.593,30.593,0,0,0,2.24-2.4q1.173-1.386,2.187-2.8a18.206,18.206,0,0,0,1.44-2.267l-2.08-2.08a1.274,1.274,0,0,0,.16-0.267H215.321ZM215.855,8.73h30.4a14.629,14.629,0,0,1-1.254,1.947q-0.88,1.2-1.867,2.374a21.417,21.417,0,0,1-1.92,2.027,2.7,2.7,0,0,1-1.36.853H223.429l-3.04,8.374,5.067-4.907h12.321l-7.627,7.2H219.535l-1.173,3.2h20.429q-0.054.108-.267,0.453c-0.142.232-.285,0.472-0.426,0.72s-0.286.48-.427,0.693a3.908,3.908,0,0,1-.267.373,16.166,16.166,0,0,1-1.307,1.493q-0.827.854-1.627,1.627t-1.413,1.307a4.374,4.374,0,0,1-.667.533H205.56ZM249.3,18.758h6.667L249.032,37.8h0.373l2.027,2.027h11.575l7.681-21.069h5.867a3.068,3.068,0,0,0,1.547-1.013,30.218,30.218,0,0,0,2.24-2.4q1.173-1.386,2.187-2.8a18.236,18.236,0,0,0,1.441-2.267L281.889,8.2a1.23,1.23,0,0,0,.16-0.267h-28.27a9.427,9.427,0,0,0-1.92,1.707q-1.121,1.228-2.214,2.534t-1.867,2.374a7.078,7.078,0,0,0-.826,1.28v0.907h0.32ZM250.152,37l7.681-21.069H247.752V15.877a5.937,5.937,0,0,1,.773-1.173q0.72-.96,1.707-2.134t2.027-2.267a10.454,10.454,0,0,1,1.787-1.574h26.723a14.6,14.6,0,0,1-1.253,1.947q-0.881,1.2-1.867,2.374a21.676,21.676,0,0,1-1.92,2.027,2.693,2.693,0,0,1-1.361.853h-6.294L260.393,37H250.152Z" />
  <path
     style="fill:#2a374e;stroke:none;stroke-width:0.228484;fill-opacity:1"
     d="m 18.302866,59.126116 c 1.576693,-2.588109 7.808625,-10.688089 8.858593,-11.513995 0.524088,-0.412247 1.241346,-0.430095 17.284254,-0.430095 19.163742,0 17.584862,0.185198 17.8424,-2.092863 0.191827,-1.696807 -0.06533,-3.31573 -0.613798,-3.864201 -0.422182,-0.422182 -0.875536,-0.440499 -10.902777,-0.440499 -8.718317,0 -10.689275,-0.05911 -11.824067,-0.354608 -4.21049,-1.096405 -8.119061,-5.642567 -9.353635,-10.87946 -0.591836,-2.510489 -1.657833,-2.247502 9.077146,-2.23938 l 9.424981,0.0071 0.913938,0.56291 0.913938,0.562909 9.756461,0.0012 c 6.257082,7.52e-4 10.19074,0.09203 10.967251,0.254492 5.259137,1.100318 9.339084,7.401434 9.378281,14.483921 0.01513,2.73266 -0.351994,4.365857 -1.558853,6.93485 -2.077869,4.42308 -5.297128,7.806029 -8.78674,9.233517 l -1.249165,0.510994 -25.326855,0.0629 -25.326852,0.0629 z"
     id="path1608" />
  <path
     style="fill:#2a374e;stroke:none;stroke-width:0.228484;fill-opacity:1"
     d="m 31.102915,19.751301 c 2.226118,-4.256824 5.629303,-7.827752 9.090344,-9.538407 l 1.709695,-0.8450341 25.459681,-0.061013 25.459682,-0.061013 -0.4058,0.6322242 c -1.23013,1.9165009 -4.506221,5.8109509 -7.390229,8.7851219 l -3.282925,3.385563 H 55.822412 29.901461 Z"
     id="path1684" />
  <path
     style="fill:#2a374e;stroke:none;stroke-width:0.228484;fill-opacity:1"
     d="m 90.974867,36.682001 c 0.04189,-0.120023 2.338157,-6.441167 5.102818,-14.046984 l 5.026655,-13.8287581 4.96954,-0.0048 c 2.94486,-0.00285 4.96953,0.082505 4.96953,0.2094973 0,0.1178662 -0.98537,2.9024908 -2.1897,6.1880548 -1.20434,3.285565 -2.14147,6.021988 -2.08252,6.080941 0.0589,0.05895 4.04339,-2.725672 8.8543,-6.188055 l 8.74711,-6.2952431 h 5.44508 c 2.99479,0 5.44508,0.044138 5.44508,0.098083 0,0.053946 -3.93279,3.1014831 -8.73953,6.7723051 -4.80674,3.670822 -8.87149,6.795447 -9.03277,6.94361 -0.23361,0.2146 0.69922,1.63985 4.58663,7.007817 2.68394,3.706137 4.95544,6.860679 5.04778,7.010097 0.12798,0.207068 -1.15876,0.271667 -5.41122,0.271667 h -5.57913 l -5.11784,-6.2146 c -2.81482,-3.418031 -5.20402,-6.219821 -5.30935,-6.2262 -0.10532,-0.0064 -1.05468,2.353215 -2.1097,5.243542 -1.05501,2.890328 -2.08181,5.692118 -2.28177,6.2262 l -0.36356,0.971058 h -5.026795 c -3.094515,0 -4.997524,-0.08388 -4.950638,-0.218227 z"
     id="path1760" />
  <path
     style="fill:#2a374e;stroke:none;stroke-width:0.228484;fill-opacity:1"
     d="m 141.78874,36.386139 c 0.0876,-0.28275 1.17113,-3.277294 2.40789,-6.654542 l 2.24867,-6.140452 -2.87803,-7.111643 c -1.58292,-3.911403 -2.92758,-7.2401646 -2.98815,-7.3972476 -0.0862,-0.2237098 1.10322,-0.2856055 5.48857,-0.2856055 h 5.59869 l 1.30151,3.2559021 c 0.71584,1.790747 1.33939,3.294756 1.38568,3.342243 0.0463,0.04749 1.79286,-1.417669 3.88128,-3.255902 l 3.79713,-3.3422431 h 5.47883 c 3.26438,0 5.42649,0.084698 5.34933,0.2095521 -0.0712,0.1152536 -3.77375,3.421798 -8.22781,7.347876 l -8.0983,7.138324 -1.00917,2.762558 c -0.55504,1.519407 -1.65682,4.536168 -2.44841,6.703914 l -1.43925,3.941355 h -5.00383 -5.00384 z"
     id="path1836" />
  <path
     style="fill:#2a374e;stroke:none;stroke-width:0.228484;fill-opacity:1"
     d="m 168.39299,36.699935 c 0,-0.154303 9.22823,-25.674383 9.94542,-27.5034384 0.14408,-0.3674514 0.67114,-0.3998477 6.50513,-0.3998477 h 6.34835 l 0.12597,0.5140899 c 0.0693,0.2827494 0.75564,3.8025832 1.52523,7.8218542 0.76958,4.01927 1.43775,7.346263 1.4848,7.393317 0.12287,0.122865 0.41631,-0.638872 3.30883,-8.589124 l 2.59777,-7.1401371 h 4.97711 4.97711 l -0.6865,1.8849961 c -0.37758,1.036748 -2.66891,7.334349 -5.09185,13.994669 l -4.40534,12.109672 -6.41057,0.06063 -6.41057,0.06063 -0.70333,-3.716383 c -0.38683,-2.044011 -1.03415,-5.515698 -1.43848,-7.71486 -0.40433,-2.199162 -0.80204,-4.078221 -0.88379,-4.175686 -0.0818,-0.09747 -1.4261,3.371729 -2.98743,7.709321 l -2.83879,7.886531 -4.96953,0.0021 c -2.73325,0.0011 -4.96954,-0.08814 -4.96954,-0.198297 z"
     id="path1912" />
  <path
     style="fill:#2a374e;stroke:none;stroke-width:0.228484;fill-opacity:1"
     d="m 205.97932,36.043412 c 0.18682,-0.471249 2.49059,-6.76885 5.11949,-13.994669 l 4.77982,-13.1378519 15.12688,-0.058761 15.12688,-0.058761 -0.39826,0.6299719 c -0.96886,1.532531 -2.94697,3.960941 -4.20012,5.156245 l -1.363,1.300079 h -8.41789 -8.41789 l -0.71555,1.999238 c -0.39356,1.099581 -1.08128,3.001714 -1.52828,4.226961 -0.44699,1.225248 -0.75038,2.227723 -0.6742,2.227723 0.0762,0 1.23585,-1.081331 2.57703,-2.402959 l 2.43851,-2.402959 5.99221,0.06099 5.99221,0.06099 -3.72142,3.484387 -3.72142,3.484387 h -5.28423 -5.28423 l -0.57007,1.599391 -0.57008,1.59939 h 10.136 c 5.57479,0 10.13599,0.07849 10.13599,0.174414 0,0.517465 -1.94446,2.943338 -3.84353,4.795122 l -2.16746,2.11348 h -13.44353 -13.44353 z"
     id="path1988" />
  <path
     style="fill:#2a374e;stroke:none;stroke-width:0.228484;fill-opacity:1"
     d="m 250.41889,36.711925 c 0,-0.103567 1.68399,-4.807489 3.7422,-10.453161 l 3.74221,-10.264857 -5.02514,-0.114242 -5.02515,-0.114242 1.10456,-1.46892 c 0.60751,-0.807906 1.96765,-2.375881 3.02254,-3.484387 l 1.91798,-2.0154671 h 13.34841 13.34841 l -0.26938,0.5140899 c -0.46969,0.8964042 -3.08542,4.1260632 -4.30244,5.3122622 l -1.1721,1.142422 -3.45133,0.114242 -3.45132,0.114242 -3.79519,10.451959 -3.79519,10.451959 -4.96954,0.0011 c -2.73324,7.2e-4 -4.96953,-0.08347 -4.96953,-0.187042 z"
     id="path2064" />
  <path
     style="fill:#f0f2f3;stroke:none;stroke-width:0.228484;fill-opacity:1"
     d="m 17.141682,62.153276 c -0.429246,-0.442869 -0.964964,-0.805218 -1.190484,-0.805218 -0.353949,0 -0.311378,-0.160339 0.311224,-1.172196 1.83684,-2.985247 8.606033,-11.776974 10.39927,-13.50642 l 0.886859,-0.855311 16.671268,-0.05863 16.67127,-0.05863 0.06971,-0.959871 0.06971,-0.959872 -10.008782,-0.06849 c -9.746054,-0.06669 -10.04177,-0.08187 -11.265448,-0.578364 -2.174617,-0.882321 -6.027755,-3.878903 -7.667941,-5.96335 -2.008728,-2.552812 -3.824961,-6.896206 -4.138632,-9.897245 l -0.139713,-1.336706 h 10.771315 c 9.307194,0 10.771316,0.04549 10.771316,0.334688 0,0.740669 0.862309,0.807725 10.43814,0.811701 10.312848,0.0043 11.541486,0.11325 13.69691,1.214777 1.914148,0.978223 3.902602,2.988429 6.446801,6.517324 1.866992,2.589586 3.022572,6.537949 3.052124,10.428441 0.02036,2.678886 -0.167527,3.696237 -1.118152,6.054836 -2.008997,4.984522 -5.852424,9.209004 -9.948548,10.934895 l -1.43247,0.603566 -26.28265,0.06264 -26.282652,0.06265 z m 52.347894,-2.54926 c 4.50587,-1.706358 9.097158,-7.329427 10.36064,-12.688943 0.944621,-4.006949 0.0036,-9.454769 -2.283436,-13.219666 -1.008651,-1.660419 -3.288978,-3.790344 -4.790155,-4.474215 -1.91431,-0.872076 -3.631393,-0.999768 -13.484927,-1.002815 l -9.367859,-0.0029 -0.913938,-0.562909 -0.913938,-0.56291 -9.553222,-0.0071 -9.553224,-0.0071 0.156614,1.085301 c 0.862129,5.974371 5.061334,11.207072 10.029825,12.498331 1.133605,0.294613 3.116824,0.353915 11.835726,0.353915 h 10.473935 l 0.357226,0.854961 c 0.50599,1.211002 0.326545,4.337661 -0.274154,4.776903 -0.34553,0.252658 -3.458776,0.308731 -17.141333,0.308731 -16.248114,0 -16.735126,0.01259 -17.287313,0.446941 -1.534462,1.207009 -9.688621,12.162262 -9.400067,12.629151 0.06499,0.10516 11.445667,0.162074 25.29039,0.126478 25.063264,-0.06444 25.177794,-0.06683 26.45921,-0.552096 z"
     id="path2140" />
  <path
     style="fill:#f0f2f3;stroke:none;stroke-width:0.228484;fill-opacity:1"
     d="m 29.474486,24.219345 c -0.426302,-0.439832 -0.909153,-0.799695 -1.073001,-0.799695 -0.491862,0 -0.350374,-0.496373 0.789113,-2.768388 2.887528,-5.757424 8.150477,-11.0797215 12.203569,-12.3411857 1.306483,-0.406623 2.597229,-0.427365 26.594426,-0.427365 h 25.221302 l 0.325202,0.6288714 c 0.178862,0.3458793 0.544684,0.8274999 0.81294,1.070268 0.268255,0.2427681 0.701338,0.7870093 0.962404,1.2094253 l 0.474669,0.768028 -1.982248,2.612897 c -2.362581,3.114231 -4.953772,6.11729 -7.634157,8.847601 L 84.206024,25.01904 H 57.227804 30.249581 Z M 84.674415,19.24981 c 1.633197,-1.66508 3.492551,-3.644326 4.131898,-4.398325 1.531773,-1.806461 4.186832,-5.3748867 4.186832,-5.6271459 0,-0.1120708 -10.933099,-0.1992058 -24.994971,-0.1992058 -24.254618,0 -25.037986,0.013378 -26.447069,0.4516406 -3.824349,1.1894751 -8.350463,5.6234821 -10.902324,10.6804571 -0.39453,0.781832 -0.717326,1.578671 -0.717326,1.770754 0,0.311279 2.813982,0.349243 25.886755,0.349243 h 25.886758 z"
     id="path2216" />
  <path
     style="fill:#f0f2f3;stroke:none;stroke-width:0.228484;fill-opacity:1"
     d="M 90.891113,38.606815 89.817261,37.582184 94.952153,23.475021 C 97.776344,15.716083 100.19989,9.0851104 100.33781,8.7395278 l 0.25076,-0.6283321 h 5.7501 5.7501 l 1.10236,1.1191904 1.10236,1.1191899 -1.05383,2.845341 c -0.5796,1.564938 -1.05383,2.963346 -1.05383,3.107573 0,0.144228 2.64546,-1.639811 5.8788,-3.964531 l 5.8788,-4.2267633 h 6.86876 6.86875 l 0.96151,0.9797072 c 0.52883,0.5388389 0.96151,1.0444221 0.96151,1.1235191 0,0.0791 -4.31835,3.455877 -9.59634,7.503956 -5.27799,4.04808 -9.59635,7.436025 -9.59635,7.528768 0,0.09274 2.30819,3.34383 5.12932,7.224639 l 5.12931,7.056014 -6.28785,0.06076 -6.28785,0.06076 -1.4516,-1.317429 c -0.79838,-0.724586 -3.06336,-3.270969 -5.03329,-5.658631 -1.96993,-2.387662 -3.64857,-4.36554 -3.7303,-4.395285 -0.0817,-0.02975 -1.07398,2.514937 -2.20498,5.654847 l -2.05636,5.708927 -5.826352,-0.0051 -5.826352,-0.0052 z m 12.433127,-7.647181 c 1.22265,-3.33016 2.25726,-6.149151 2.29914,-6.264424 0.0419,-0.115274 2.4181,2.635107 5.28051,6.111957 l 5.20437,6.321546 h 5.69301 c 3.13116,0 5.69123,-0.07711 5.68905,-0.171363 -0.002,-0.09425 -2.16804,-3.153085 -4.81302,-6.797411 -2.64497,-3.644326 -4.89794,-6.785698 -5.0066,-6.980827 -0.15743,-0.282714 1.65355,-1.767872 8.91556,-7.3115 5.01221,-3.826197 9.11769,-7.0338344 9.12329,-7.1280842 0.006,-0.09425 -2.53701,-0.1713633 -5.65025,-0.1713633 h -5.66042 l -8.67697,6.2509005 c -4.77234,3.437996 -8.70506,6.228839 -8.73938,6.201875 -0.0343,-0.02697 0.91674,-2.718718 2.11348,-5.981674 1.19674,-3.262956 2.17589,-6.053799 2.17589,-6.2018741 0,-0.198635 -1.3421,-0.2692274 -5.11855,-0.2692274 h -5.11855 l -0.22484,0.6283321 c -0.12366,0.3455826 -2.447125,6.7329824 -5.16325,14.1942224 -2.716124,7.46124 -4.938408,13.606545 -4.938408,13.656231 0,0.04969 2.33841,0.06271 5.196468,0.02893 l 5.19647,-0.06141 z"
     id="path2292" />
  <path
     style="fill:#f0f2f3;stroke:none;stroke-width:0.228484;fill-opacity:1"
     d="m 141.59716,38.592745 -1.09133,-1.043603 2.51621,-6.968316 2.51622,-6.968317 -3.08139,-7.622213 c -1.69477,-4.192217 -3.08139,-7.680013 -3.08139,-7.7506569 0,-0.070644 2.85671,-0.1284434 6.34824,-0.1284434 h 6.34825 l 1.16334,1.1995431 c 0.79249,0.8171542 1.3359,1.6547682 1.70466,2.6275702 0.29773,0.785415 0.59326,1.427416 0.65673,1.426667 0.0635,-7.54e-4 1.43839,-1.183154 3.05536,-2.62757 l 2.93995,-2.6262103 6.77064,0.021522 6.77063,0.021522 0.90211,1.0235528 c 0.66566,0.7552608 0.84533,1.1109195 0.68546,1.3568655 -0.11916,0.183322 -4.11548,3.769391 -8.8807,7.969043 l -8.66405,7.63573 -2.43323,6.694184 -2.43322,6.694184 -5.81058,0.05427 -5.81057,0.05427 z m 12.60209,-8.257373 2.4268,-6.679099 8.38304,-7.372691 c 4.61067,-4.05498 8.38923,-7.4498044 8.3968,-7.5440542 0.008,-0.09425 -2.54095,-0.1713633 -5.66337,-0.1713633 h -5.67712 l -3.72684,3.2559025 c -2.04976,1.790746 -3.7877,3.240534 -3.8621,3.22175 -0.0744,-0.01878 -0.70682,-1.458236 -1.4054,-3.198781 l -1.27015,-3.1646293 -5.75575,-0.061044 c -3.16566,-0.033574 -5.75575,0.00669 -5.75575,0.089474 0,0.082785 1.34381,3.4612923 2.98623,7.5077943 l 2.98623,7.357276 -2.41502,6.599873 c -1.32826,3.629929 -2.41501,6.681242 -2.41501,6.780692 0,0.09945 2.32664,0.153185 5.17031,0.119408 l 5.17031,-0.06141 z"
     id="path2368" />
  <path
     style="fill:#f0f2f3;stroke:none;stroke-width:0.228484;fill-opacity:1"
     d="m 168.30711,38.571274 -1.11406,-1.065073 4.74243,-13.040991 c 2.60834,-7.172545 4.87679,-13.349445 5.041,-13.726444 0.16422,-0.376999 0.42415,-1.1224294 0.57764,-1.6565116 l 0.27907,-0.9710587 h 6.99831 6.99832 l 1.06224,1.0853009 1.06224,1.0853004 0.70887,3.884235 c 0.38987,2.136329 0.78783,4.079743 0.88435,4.318698 0.12859,0.318325 0.69564,-0.994834 2.12128,-4.912414 l 1.94577,-5.3468781 5.80962,-0.036422 5.80963,-0.036422 1.00559,1.1241091 1.00558,1.124109 -1.8384,5.081391 c -1.01113,2.794766 -3.40581,9.374042 -5.32152,14.620615 l -3.4831,9.539223 -6.99406,-0.0053 -6.99405,-0.0053 -1.08128,-1.031649 -1.08127,-1.031648 -0.72154,-3.932591 c -0.39684,-2.162924 -0.79282,-4.013162 -0.87995,-4.111638 -0.0871,-0.09848 -0.98644,2.11211 -1.99847,4.912414 l -1.84007,5.091462 -5.79505,0.05427 -5.79506,0.05427 z m 11.10811,-4.241495 c 0.55978,-1.539413 1.82881,-5.039669 2.82007,-7.778346 0.99127,-2.738677 1.84125,-4.86256 1.88886,-4.719742 0.0476,0.142819 0.72017,3.61737 1.49459,7.721225 l 1.40804,7.461555 6.51798,0.06055 6.51797,0.06055 5.16186,-14.185781 c 3.39368,-9.326504 5.07025,-14.2209313 4.89444,-14.288398 -0.14708,-0.05644 -2.4624,-0.074801 -5.14515,-0.040803 l -4.87773,0.061815 -2.77085,7.596016 c -1.52396,4.177809 -2.82768,7.596506 -2.89715,7.597106 -0.0695,5.94e-4 -0.76942,-3.366199 -1.55546,-7.481774 -0.78604,-4.115575 -1.50714,-7.5616368 -1.60244,-7.6579151 -0.0953,-0.096278 -3.04318,-0.1476873 -6.55082,-0.1142422 l -6.37754,0.060809 -5.08571,13.9375473 c -2.79713,7.665651 -5.08704,14.06607 -5.08869,14.223153 -0.002,0.220072 1.17104,0.285606 5.11349,0.285606 h 5.11646 z"
     id="path2483" />
  <path
     style="fill:#f0f2f3;stroke:none;stroke-width:0.228484;fill-opacity:1"
     d="m 205.62849,38.642927 -1.03563,-0.988524 5.37109,-14.771603 5.37109,-14.7716043 h 15.894 15.894 l 1.11438,1.1313883 1.11438,1.131388 -0.64266,0.982093 c -1.22075,1.865544 -3.49334,4.642338 -4.87095,5.951627 l -1.38233,1.313786 h -1.50211 c -0.82616,0 -1.50211,0.08195 -1.50211,0.182113 0,0.100163 0.41127,0.583711 0.91394,1.074551 0.50266,0.49084 0.91393,0.963103 0.91393,1.049473 0,0.08637 -1.82502,1.883806 -4.0556,3.9943 -2.23057,2.110494 -4.08987,3.921093 -4.13175,4.023553 -0.0419,0.10246 1.44897,0.196753 3.31302,0.209539 l 3.38918,0.02325 1.00947,1.125695 1.00947,1.125694 -0.53207,0.96454 c -1.25917,2.282646 -2.25957,3.518607 -4.31071,5.325745 l -2.18165,1.922113 -14.06237,-0.0053 -14.06237,-0.0053 z m 29.19035,-3.741937 c 1.88588,-1.837369 3.94734,-4.425706 3.94734,-4.956207 0,-0.06758 -4.56324,-0.149629 -10.14053,-0.182339 l -10.14053,-0.05947 0.57013,-1.542269 0.57012,-1.54227 h 5.31003 5.31003 l 3.82887,-3.598629 3.82886,-3.598629 -6.24379,-0.06088 -6.24379,-0.06088 -2.2282,2.219835 c -1.22551,1.220909 -2.27237,2.173668 -2.32636,2.117242 -0.054,-0.05643 0.49641,-1.74768 1.22311,-3.758342 l 1.32129,-3.655751 8.49982,-0.114242 8.49982,-0.114242 1.76711,-1.835054 c 1.64395,-1.707165 4.134,-4.9585813 4.134,-5.3980371 0,-0.3033242 -30.32871,-0.2456344 -30.5164,0.058047 -0.26743,0.432713 -10.15382,27.7144291 -10.15382,28.0196981 0,0.23126 2.72955,0.290152 13.44817,0.290152 h 13.44818 z"
     id="path2559" />
  <path
     style="fill:#f0f2f3;stroke:none;stroke-width:0.228484;fill-opacity:1"
     d="m 250.33853,38.576495 -1.10853,-1.059848 3.33736,-9.161979 c 1.83555,-5.039089 3.33687,-9.290502 3.33626,-9.447585 -8.3e-4,-0.214662 -0.80986,-0.287769 -3.25701,-0.294316 l -3.2559,-0.0087 -1.19954,-1.119058 c -0.65975,-0.615481 -1.19955,-1.235649 -1.19955,-1.378149 0,-0.419753 1.31154,-2.205641 3.44471,-4.690583 3.20699,-3.7358328 0.95344,-3.308852 17.32106,-3.2818238 l 14.0781,0.023248 1.00339,1.1192099 1.00338,1.1192099 -0.86845,1.313749 c -1.2366,1.870666 -3.26986,4.315066 -4.75132,5.712075 l -1.27206,1.199543 -3.15534,0.0017 -3.15533,0.0017 -3.80721,10.451496 -3.80721,10.451496 -5.78914,0.05427 -5.78913,0.05427 z m 11.44839,-5.160653 c 0.7531,-2.04208 2.47642,-6.764523 3.82959,-10.49432 l 2.4603,-6.781448 3.41502,-0.07308 3.41502,-0.07308 1.76679,-1.835054 c 1.64386,-1.70738 4.13367,-4.9587525 4.13367,-5.3980371 0,-0.1059583 -6.03796,-0.1926514 -13.41769,-0.1926514 h -13.4177 l -1.96156,1.9992385 c -1.87646,1.912507 -4.33328,4.941218 -4.33328,5.341965 0,0.104521 2.24049,0.21771 4.97888,0.251531 l 4.97887,0.06149 -3.71292,10.167556 c -2.0421,5.592155 -3.7171,10.296077 -3.72221,10.45316 -0.007,0.220255 1.16079,0.285606 5.10432,0.285606 h 5.11362 z"
     id="path2635" />
  <path
     id="path2711"
     style="fill:#f0f2f3;stroke:none;stroke-width:0.228484;fill-opacity:1"
     d="M 194.30859 42.371094 C 192.82133 42.388919 191.26054 42.562225 190.36328 42.865234 C 187.87537 43.705413 185.82545 45.582166 184.65234 48.095703 C 183.87999 49.750556 183.67489 53.074929 184.25195 54.585938 C 184.75481 55.902652 186.02305 57.129115 187.44922 57.677734 C 189.09546 58.311017 192.31386 58.286316 194.89648 57.621094 L 196.83984 57.121094 L 197.57031 54.150391 C 197.97208 52.516727 198.36677 50.795468 198.44727 50.324219 L 198.59375 49.466797 L 195.1543 49.466797 L 191.7168 49.466797 L 191.50195 50.324219 C 190.98648 52.396014 190.88666 52.208984 192.51953 52.208984 C 194.16529 52.208984 194.12021 52.137678 193.72266 54.117188 C 193.41292 55.659515 193.00713 55.86039 191.04688 55.449219 C 188.65103 54.946685 187.91787 54.046106 187.95117 51.644531 C 187.98838 48.962294 189.16163 46.851302 191.24609 45.716797 C 192.23868 45.176558 192.71409 45.064366 193.98047 45.072266 C 195.59325 45.082362 196.74415 45.511541 198.26562 46.669922 C 198.82539 47.0961 199.03033 47.156965 199.11133 46.921875 C 199.24431 46.535776 199.92383 43.840909 199.92383 43.699219 C 199.92383 43.5434 198.33433 42.892057 197.29688 42.623047 C 196.57823 42.436705 195.46536 42.35723 194.30859 42.371094 z M 242.95312 42.390625 C 241.93399 42.407842 240.98314 42.515956 240.33789 42.724609 C 236.64966 43.917275 234.25285 46.896176 233.74219 50.923828 C 233.27301 54.624372 234.59736 57.015173 237.62305 57.935547 C 237.93803 58.031361 239.04675 58.118106 240.08789 58.128906 C 241.54764 58.14405 242.38924 58.014802 243.76367 57.560547 L 245.54492 56.970703 L 245.94922 55.259766 C 246.17102 54.318813 246.30269 53.499913 246.24219 53.439453 C 246.18173 53.378995 245.65017 53.654802 245.06055 54.052734 C 244.47092 54.450666 243.51584 54.91833 242.93945 55.091797 C 239.46587 56.137193 237.39588 54.553497 237.69336 51.080078 C 238.00036 47.495543 240.14115 45.125 243.07227 45.125 C 244.50828 45.125 245.48424 45.503783 246.62109 46.501953 C 247.10307 46.925137 247.55338 47.161088 247.6582 47.044922 C 247.81628 46.869741 248.5918 44.040286 248.5918 43.638672 C 248.5918 43.563182 248.10278 43.283547 247.50586 43.017578 C 246.53863 42.586608 244.65169 42.36193 242.95312 42.390625 z M 118.20508 42.613281 L 117.9375 43.771484 C 117.79025 44.409403 117.66992 45.026499 117.66992 45.142578 C 117.66992 45.258662 118.69842 45.353516 119.95508 45.353516 C 121.88597 45.353516 122.23828 45.409502 122.23828 45.714844 C 122.23828 46.038196 119.87989 56.536887 119.58594 57.521484 C 119.47883 57.880242 119.66558 57.919922 121.4043 57.919922 L 123.3418 57.919922 L 124.07227 54.779297 C 124.47395 53.051384 125.12761 50.249231 125.52539 48.552734 L 126.25 45.46875 L 128.68164 45.404297 L 131.11523 45.339844 L 131.36133 44.193359 C 131.49652 43.562997 131.60742 42.949559 131.60742 42.830078 C 131.60742 42.69769 128.99002 42.613281 124.90625 42.613281 L 118.20508 42.613281 z M 139.4707 42.613281 C 136.402 42.613281 133.89258 42.672454 133.89258 42.746094 C 133.89258 42.819731 133.12023 46.221453 132.17773 50.304688 C 131.23523 54.38792 130.46484 57.772935 130.46484 57.828125 C 130.46484 57.883315 132.95031 57.900836 135.98828 57.867188 L 141.51172 57.806641 L 141.80469 56.550781 C 141.96588 55.859615 142.10242 55.267748 142.10742 55.236328 C 142.11274 55.204918 140.524 55.179685 138.57617 55.179688 C 134.5329 55.179688 134.83593 55.409279 135.41211 52.787109 L 135.79102 51.066406 L 139.1543 51.066406 L 142.51953 51.066406 L 142.77539 50.050781 C 143.23559 48.223136 143.40748 48.324219 139.83203 48.324219 C 136.21098 48.324219 136.36976 48.429929 136.88867 46.369141 L 137.14453 45.353516 L 140.76953 45.353516 L 144.39258 45.353516 L 144.53516 44.726562 C 144.61258 44.38098 144.75994 43.763885 144.86328 43.355469 L 145.05078 42.613281 L 139.4707 42.613281 z M 148.16211 42.613281 L 146.47461 49.980469 C 145.54724 54.03321 144.74159 57.479322 144.68359 57.638672 C 144.59991 57.868656 145.72316 57.915797 150.12891 57.867188 L 155.67969 57.806641 L 155.83008 57.234375 C 155.91266 56.920209 156.0447 56.330291 156.125 55.921875 L 156.27148 55.179688 L 152.73633 55.179688 C 150.72938 55.179688 149.20117 55.088394 149.20117 54.96875 C 149.20117 54.852818 149.81631 52.084538 150.57031 48.818359 C 151.32431 45.55218 151.94141 42.819804 151.94141 42.746094 C 151.94141 42.672376 151.09235 42.613281 150.05273 42.613281 L 148.16211 42.613281 z M 163.25195 42.613281 C 162.18379 42.613281 161.31055 42.672454 161.31055 42.746094 C 161.31055 42.819731 160.5382 46.221453 159.5957 50.304688 C 158.65321 54.38792 157.88281 57.771269 157.88281 57.824219 C 157.88281 57.877169 160.34627 57.919922 163.35742 57.919922 L 168.83203 57.919922 L 169.08398 56.949219 C 169.22197 56.415137 169.38542 55.798041 169.44922 55.578125 C 169.55621 55.209477 169.28919 55.179688 166.00977 55.179688 C 163.18356 55.179687 162.45312 55.115139 162.45312 54.871094 C 162.45313 54.702166 163.07022 51.911607 163.82422 48.667969 C 164.57821 45.424331 165.19336 42.734666 165.19336 42.691406 C 165.19336 42.648146 164.32012 42.613281 163.25195 42.613281 z M 173.93164 42.613281 L 173.67578 43.626953 C 173.3019 45.111756 173.30975 45.125 174.5625 45.125 C 175.50164 45.125 175.70231 45.196694 175.69531 45.525391 C 175.69035 45.745307 175.19712 48.033213 174.59961 50.609375 L 173.51367 55.292969 L 172.23438 55.361328 L 170.95508 55.429688 L 170.70312 56.433594 C 170.56403 56.986037 170.44922 57.546834 170.44922 57.679688 C 170.44922 57.841116 171.91839 57.919922 174.87695 57.919922 L 179.30273 57.919922 L 179.43555 57.261719 C 179.50802 56.89938 179.6343 56.334686 179.7168 56.005859 C 179.86553 55.413293 179.85492 55.408203 178.56055 55.408203 C 177.61012 55.408203 177.28408 55.328961 177.36328 55.121094 C 177.42315 54.964011 177.97075 52.65088 178.58008 49.980469 L 179.6875 45.125 L 180.98047 45.125 C 182.22215 45.125 182.27772 45.099701 182.4043 44.466797 C 182.47677 44.104458 182.605 43.539764 182.6875 43.210938 L 182.83789 42.613281 L 178.38477 42.613281 L 173.93164 42.613281 z M 204.04492 42.613281 L 203.92383 43.126953 C 203.08164 46.667922 200.60938 57.539163 200.60938 57.703125 C 200.60937 57.833885 202.78371 57.919922 206.08789 57.919922 L 211.56836 57.919922 L 211.70898 57.292969 C 211.7864 56.947386 211.93377 56.330291 212.03711 55.921875 L 212.22461 55.179688 L 208.5625 55.179688 C 205.69373 55.179688 204.92627 55.116299 205.01367 54.888672 C 205.07499 54.72887 205.30151 53.803227 205.51758 52.832031 L 205.91016 51.066406 L 209.27539 51.066406 L 212.64062 51.066406 L 212.9082 49.90625 C 213.05545 49.268331 213.17578 48.651235 213.17578 48.535156 C 213.17578 48.415733 211.73102 48.324219 209.84766 48.324219 L 206.51953 48.324219 L 206.66602 47.810547 C 206.74729 47.527798 206.84747 47.141624 206.88867 46.953125 C 206.92985 46.764625 207.02662 46.328004 207.10352 45.982422 L 207.24414 45.353516 L 210.87695 45.353516 L 214.50977 45.353516 L 214.75586 44.201172 C 214.89194 43.566654 215.00391 42.949559 215.00391 42.830078 C 215.00391 42.69879 212.83681 42.613281 209.52539 42.613281 L 204.04492 42.613281 z M 220.43555 42.613281 C 219.20759 42.613281 218.20312 42.672454 218.20312 42.746094 C 218.20313 42.819731 217.43077 46.221453 216.48828 50.304688 C 215.54578 54.38792 214.77539 57.775744 214.77539 57.833984 C 214.77539 57.892224 215.56254 57.909747 216.52539 57.873047 L 218.27734 57.806641 L 219.47852 52.587891 C 220.13961 49.717755 220.72374 47.325054 220.77734 47.271484 C 220.83091 47.217916 221.8918 49.591754 223.13477 52.546875 L 225.39453 57.919922 L 227.04883 57.919922 C 228.57602 57.919922 228.7133 57.880792 228.82617 57.40625 C 229.66836 53.865281 232.14062 42.99404 232.14062 42.830078 C 232.14062 42.710818 231.37321 42.613281 230.43555 42.613281 L 228.73047 42.613281 L 228.51172 43.46875 C 228.39173 43.939999 227.9632 45.816509 227.55859 47.638672 C 227.15398 49.460835 226.75442 51.084835 226.66992 51.246094 C 226.58208 51.413757 225.69195 49.628336 224.5918 47.076172 L 222.66797 42.613281 L 220.43555 42.613281 z M 251.79883 42.613281 L 251.67578 43.126953 C 250.83359 46.667922 248.36328 57.539163 248.36328 57.703125 C 248.36328 57.833885 250.53762 57.919922 253.8418 57.919922 L 259.32031 57.919922 L 259.46094 57.292969 C 259.53837 56.947386 259.68767 56.330291 259.79102 55.921875 L 259.97852 55.179688 L 256.32617 55.179688 C 252.95389 55.179687 252.68194 55.148445 252.79297 54.779297 C 252.85911 54.559381 253.07947 53.633738 253.2832 52.722656 L 253.6543 51.066406 L 257.02344 51.066406 L 260.39453 51.066406 L 260.66211 49.90625 C 260.80936 49.268331 260.92969 48.651235 260.92969 48.535156 C 260.92969 48.415733 259.48492 48.324219 257.60156 48.324219 L 254.27148 48.324219 L 254.41992 47.810547 C 254.50119 47.527798 254.60138 47.141624 254.64258 46.953125 C 254.68376 46.764625 254.78052 46.328004 254.85742 45.982422 L 254.99805 45.353516 L 258.62891 45.353516 L 262.26172 45.353516 L 262.50977 44.201172 C 262.64585 43.566654 262.75781 42.949559 262.75781 42.830078 C 262.75781 42.69879 260.58876 42.613281 257.27734 42.613281 L 251.79883 42.613281 z M 114.65625 42.630859 C 114.41058 42.631225 114.0851 42.644024 113.65625 42.660156 L 111.86719 42.726562 L 111.36523 44.896484 C 111.08945 46.090315 110.63506 48.073057 110.35352 49.302734 C 110.07197 50.532411 109.78776 51.486935 109.72266 51.421875 C 109.6576 51.356814 108.76528 49.374072 107.74023 47.015625 L 105.87695 42.726562 L 103.67969 42.662109 C 101.73558 42.604432 101.46921 42.642948 101.36133 43.003906 C 101.12679 43.788675 98.019531 57.428878 98.019531 57.673828 C 98.019531 57.828955 98.65096 57.919922 99.712891 57.919922 L 101.40625 57.919922 L 102.08984 55.007812 C 102.46636 53.405566 103.01026 51.040034 103.29883 49.751953 C 103.58741 48.463873 103.89096 47.410156 103.97266 47.410156 C 104.05435 47.410156 105.12694 49.775689 106.35547 52.666016 L 108.58789 57.919922 L 110.23438 57.919922 L 111.87891 57.919922 L 113.53711 50.734375 C 114.4486 46.781393 115.24976 43.330779 115.31836 43.068359 C 115.40815 42.725012 115.39327 42.629764 114.65625 42.630859 z M 95.257812 42.646484 C 94.673378 42.645304 93.948684 42.651815 93.060547 42.664062 L 88.570312 42.726562 L 88.419922 43.296875 C 88.337117 43.611041 88.198901 44.152465 88.113281 44.498047 L 87.957031 45.125 L 89.21875 45.125 C 89.91231 45.125 90.480469 45.170539 90.480469 45.224609 C 90.480469 45.278675 89.966223 47.546263 89.337891 50.265625 C 88.709559 52.984987 88.195312 55.249075 88.195312 55.296875 C 88.195312 55.34467 87.604915 55.415435 86.884766 55.453125 L 85.576172 55.521484 L 85.310547 56.720703 L 85.044922 57.919922 L 89.466797 57.919922 L 93.888672 57.919922 L 94.138672 56.949219 C 94.275387 56.415137 94.429742 55.850442 94.482422 55.693359 C 94.551293 55.488014 94.226485 55.408203 93.328125 55.408203 C 92.640904 55.408203 92.080078 55.317025 92.080078 55.207031 C 92.080078 55.049736 93.078557 50.649511 94.251953 45.640625 C 94.358637 45.185225 94.515631 45.125 95.617188 45.125 L 96.859375 45.125 L 97.107422 44.154297 C 97.244137 43.620215 97.401378 43.052308 97.455078 42.892578 C 97.513004 42.720315 97.011117 42.650024 95.257812 42.646484 z " />
</svg>
